<?xml version="1.0" encoding="UTF-8"?>
<svg version="1.1" xmlns="http://www.w3.org/2000/svg" width="1280" height="340">
<path d="M0 0 C8.44915637 4.30839918 15.86137871 9.74413932 18.96875 19.00390625 C19.02807617 21.55126953 19.02807617 21.55126953 18.76171875 24.32421875 C18.67027588 25.39583252 18.57883301 26.46744629 18.48461914 27.5715332 C18.37625732 28.74546631 18.26789551 29.91939941 18.15625 31.12890625 C17.38999079 40.39564666 16.87151308 49.6232488 16.7109375 58.921875 C16.69422501 59.86208496 16.67751251 60.80229492 16.66029358 61.77099609 C16.58234421 66.43928881 16.52473154 71.10709898 16.48706055 75.77587891 C16.35445684 86.49915226 15.36959546 96.54498722 12.96875 107.00390625 C12.34025146 107.1217749 11.71175293 107.23964355 11.06420898 107.36108398 C8.73379168 107.83454298 8.73379168 107.83454298 7.44140625 110.2890625 C6.50078327 112.14164682 5.56328406 113.9958205 4.62890625 115.8515625 C4.08105469 116.56183594 3.53320312 117.27210938 2.96875 118.00390625 C0.27734375 118.3125 0.27734375 118.3125 -2.03125 118.00390625 C-2.03125 118.66390625 -2.03125 119.32390625 -2.03125 120.00390625 C-2.505625 120.45765625 -2.98 120.91140625 -3.46875 121.37890625 C-5.25218737 123.23368112 -5.6004493 124.50526217 -6.03125 127.00390625 C-5.020625 127.21015625 -4.01 127.41640625 -2.96875 127.62890625 C2.73732686 129.24098894 6.74081946 133.16201045 9.96875 138.00390625 C11.57756705 149.4667277 2.45043159 158.35069682 -4.03125 167.00390625 C-3.32097656 167.27203125 -2.61070312 167.54015625 -1.87890625 167.81640625 C5.40433691 170.92174415 5.40433691 170.92174415 6.9609375 173.90625 C7.7063655 178.642445 6.595269 181.9703235 3.96875 186.00390625 C1.69872619 188.68787558 -0.20331922 189.53453161 -3.53125 190.56640625 C-9.45113306 192.76895098 -13.36381359 196.61489206 -17.78125 200.95703125 C-20.03125 203.00390625 -20.03125 203.00390625 -22.03125 203.00390625 C-22.299375 203.57367188 -22.5675 204.1434375 -22.84375 204.73046875 C-24.4886592 207.87960412 -26.54578102 210.69196764 -28.59375 213.58984375 C-30.21139276 216.3064286 -31.12581395 218.98288405 -32.03125 222.00390625 C-16.96540353 218.31396417 -2.29112392 213.90318414 12.38134766 208.88183594 C15.83488577 207.71001833 19.30076472 206.59324792 22.78125 205.50390625 C23.73644531 205.20484375 24.69164062 204.90578125 25.67578125 204.59765625 C27.96875 204.00390625 27.96875 204.00390625 30.96875 204.00390625 C32.24291406 208.33606405 31.56389571 210.83880357 29.96875 215.00390625 C29.84121338 215.63264648 29.71367676 216.26138672 29.58227539 216.90917969 C28.07505206 222.05521079 24.1200418 226.60066996 19.68408203 229.49414062 C17.16914831 230.71699367 14.64581889 231.76226393 12.03125 232.75390625 C11.10393066 233.12604248 10.17661133 233.49817871 9.22119141 233.8815918 C-8.04637216 240.69491727 -29.20418938 248.74283643 -48.03125 246.00390625 C-54.92199166 242.95686792 -54.92199166 242.95686792 -57.03125 240.00390625 C-60.37762302 231.30333641 -57.85508615 224.62921984 -54.57421875 216.31640625 C-52.30243564 211.43926175 -49.34017212 207.22826504 -46.03125 203.00390625 C-46.59972656 203.24367188 -47.16820312 203.4834375 -47.75390625 203.73046875 C-51.66053833 205.23051112 -54.37798994 206.07267047 -58.59375 205.62890625 C-63.15579071 203.47230519 -66.7936511 200.90207319 -70.03125 197.00390625 C-70.78125 193.87890625 -70.78125 193.87890625 -70.03125 191.00390625 C-66.93420446 186.26588882 -63.27459237 184.13470407 -58.40625 181.56640625 C-56.96845547 180.77788056 -55.53095499 179.98881846 -54.09375 179.19921875 C-51.72335869 177.91415939 -49.34805302 176.63965072 -46.96875 175.37109375 C-41.10309366 172.09848671 -37.56150716 168.70816359 -34.03125 163.00390625 C-33.47179687 162.1015625 -32.91234375 161.19921875 -32.3359375 160.26953125 C-30.87390901 157.86228434 -29.44037578 155.44239341 -28.03125 153.00390625 C-30.95167535 154.26622286 -33.86685306 155.54024011 -36.78125 156.81640625 C-37.60625 157.17283203 -38.43125 157.52925781 -39.28125 157.89648438 C-40.08046875 158.24775391 -40.8796875 158.59902344 -41.703125 158.9609375 C-42.4362793 159.2803833 -43.16943359 159.5998291 -43.92480469 159.92895508 C-46.17381609 161.0766599 -48.03030374 162.47120618 -50.03125 164.00390625 C-56.10753487 166.89737523 -62.19550935 166.24759744 -68.46484375 164.21484375 C-73.34362591 162.19093075 -77.42494846 159.8876156 -81.03125 156.00390625 C-81.53125 152.81640625 -81.53125 152.81640625 -81.03125 150.00390625 C-78.68990426 147.66256051 -77.86156851 147.67062862 -74.671875 147.2109375 C-68.24619079 146.02659118 -62.68115221 143.42423012 -56.78125 140.69140625 C-34.11128641 130.46247917 -34.11128641 130.46247917 -23.03125 129.00390625 C-21.6944333 128.68482945 -20.36009387 128.35470942 -19.03125 128.00390625 C-18.24798422 121.75899759 -17.87426679 115.66613575 -17.85424805 109.37597656 C-17.84767685 108.45920135 -17.84110565 107.54242615 -17.83433533 106.59786987 C-17.81477825 103.59258924 -17.80298067 100.58735809 -17.79296875 97.58203125 C-17.78889322 96.54738487 -17.7848177 95.51273849 -17.78061867 94.4467392 C-17.75983501 88.97230739 -17.74549898 83.49790009 -17.73608398 78.0234375 C-17.72502245 72.40072701 -17.69060283 66.7784125 -17.65091228 61.15584183 C-17.6246491 56.80266635 -17.61638367 52.44958408 -17.61280251 48.09633636 C-17.60796341 46.02490304 -17.59642693 43.95347313 -17.57776451 41.88211823 C-16.69492789 24.02388212 -16.69492789 24.02388212 -23.62333679 8.33966064 C-24.08794815 7.89886169 -24.55255951 7.45806274 -25.03125 7.00390625 C-25.71875 4.31640625 -25.71875 4.31640625 -26.03125 2.00390625 C-17.53092827 -3.85187094 -9.56177294 -4.05591598 0 0 Z " fill="#FCFDFB" transform="translate(190.03125,66.99609375)"/>
<path d="M0 0 C1.08152344 0.30550781 2.16304687 0.61101562 3.27734375 0.92578125 C16.82409204 4.8724717 16.82409204 4.8724717 19.43359375 9.59375 C19.76488281 10.5528125 20.09617187 11.511875 20.4375 12.5 C20.78683594 13.4590625 21.13617187 14.418125 21.49609375 15.40625 C22 18 22 18 20 21 C19.34 21 18.68 21 18 21 C17.67 22.32 17.34 23.64 17 25 C11.18618471 27.10286936 7.04453657 26.94799207 1 26 C-13.06052499 23.37583126 -13.06052499 23.37583126 -27 25 C-26.484375 26.155 -25.96875 27.31 -25.4375 28.5 C-22.211454 38.23958649 -24.18503781 49.4297809 -27.8671875 58.765625 C-29.03364455 61.06636098 -30.38771664 62.99155558 -32 65 C-31.05125 65.04125 -30.1025 65.0825 -29.125 65.125 C-20.67599277 66.3246562 -13.04297085 72.95702915 -7.1875 78.8125 C-5.42413892 82.06079673 -4.71359849 85.3452677 -5 89 C-5.4434375 89.93199219 -5.886875 90.86398438 -6.34375 91.82421875 C-8.8057057 97.21307041 -9.25211809 103.10761062 -10.07662964 108.92208862 C-14.84299888 142.11604538 -14.84299888 142.11604538 -24 150 C-27.5 151.375 -27.5 151.375 -31 152 C-33.00361307 152.65572791 -35.00491933 153.31875294 -37 154 C-37 154.66 -37 155.32 -37 156 C-38.134375 156.28875 -39.26875 156.5775 -40.4375 156.875 C-41.613125 157.24625 -42.78875 157.6175 -44 158 C-44.33 158.66 -44.66 159.32 -45 160 C-51.1284213 150.40768839 -48.87228572 138.74853337 -47.05209351 128.12911987 C-46.43215145 124.50883887 -45.85828009 120.88123215 -45.28125 117.25390625 C-45.16714279 116.5430336 -45.05303558 115.83216095 -44.93547058 115.0997467 C-43.5630223 106.43914209 -42.71128836 97.73716899 -42 89 C-45.13240323 89.71236912 -48.26265568 90.43241302 -51.390625 91.1640625 C-53.52160159 91.65760037 -55.65596952 92.13742378 -57.796875 92.5859375 C-69.42682202 95.1741049 -81.01109974 99.66949815 -91.765625 104.78515625 C-97.70339069 107.01540399 -103.58175704 105.21882245 -109.41015625 103.140625 C-113.63185169 101.21521624 -116.64493864 99.12135738 -119 95 C-119.25 91.6875 -119.25 91.6875 -119 89 C-111 86 -103 83 -95 80 C-95 79.34 -95 78.68 -95 78 C-96.93530766 76.17270951 -98.99047623 74.53104622 -101.0546875 72.8515625 C-104.1081193 69.94528404 -104.89621607 67.99318809 -105.3359375 63.78515625 C-105.43022946 54.79913291 -104.10332063 47.52721558 -101 39 C-101.69448242 39.20157715 -102.38896484 39.4031543 -103.10449219 39.61083984 C-106.31769752 40.53918211 -109.53379009 41.45712356 -112.75 42.375 C-113.84183594 42.69210938 -114.93367187 43.00921875 -116.05859375 43.3359375 C-138.54846283 49.72359262 -138.54846283 49.72359262 -149 45 C-154.48285142 41.63591609 -160.90182154 36.77877634 -164 31 C-163.6584183 27.95521137 -162.75075033 26.6261255 -161 24 C-158.71142578 23.78393555 -158.71142578 23.78393555 -155.8203125 23.94921875 C-148.34466011 24.1306018 -141.2299783 23.03307387 -133.875 21.8125 C-132.46822208 21.58510943 -131.06140171 21.35798137 -129.65454102 21.13110352 C-120.72906544 19.67793258 -111.82351979 18.11564625 -102.9375 16.4375 C-101.4532251 16.15966675 -101.4532251 16.15966675 -99.93896484 15.8762207 C-94.45093908 14.80631798 -89.07398895 13.50839719 -83.6796875 12.03515625 C-76.23706932 10.01369856 -68.76280683 8.43473569 -61.1875 7 C-60.52956451 6.87371216 -59.87162903 6.74742432 -59.1937561 6.61730957 C-48.68157789 4.60127972 -38.14265515 2.83582047 -27.54956055 1.29296875 C-22.04285827 0.49048223 -16.62369938 -0.44144773 -11.19775391 -1.68505859 C-7.21426266 -2.25589882 -3.78738574 -1.16762909 0 0 Z M-62.0625 30.25 C-63.10535156 30.48203125 -64.14820313 30.7140625 -65.22265625 30.953125 C-70.10818239 32.7946454 -71.48699196 36.69559365 -73.5625 41.25 C-76.41827284 47.74816575 -77.85292834 53.57802008 -78.59155273 60.60229492 C-79.32162954 67.2859262 -79.83581768 71.51531536 -85 76 C-82.37583128 75.56856027 -79.76568343 75.10433256 -77.15625 74.58984375 C-74 74 -74 74 -71.03125 73.69140625 C-67.88060881 73.20236442 -65.73832156 72.6534913 -63 71 C-60.47671348 67.17842498 -58.96768792 63.20756913 -57.59667969 58.87548828 C-57.04408994 57.13858385 -56.4194583 55.42504654 -55.7890625 53.71484375 C-52.90687887 45.46689271 -52.23987292 37.67140607 -52 29 C-55.66575778 29 -58.51601046 29.42380417 -62.0625 30.25 Z M-75 34 C-74.67 34.66 -74.34 35.32 -74 36 C-73.67 35.34 -73.34 34.68 -73 34 C-73.66 34 -74.32 34 -75 34 Z " fill="#FCFDFC" transform="translate(684,146)"/>
<path d="M0 0 C1.04269043 0.40436279 1.04269043 0.40436279 2.10644531 0.81689453 C10.16044492 4.09223782 16.64005233 8.15964945 20.40625 16.25 C22.00623066 21.58326885 22.14341839 26.68177365 21.79524231 32.17869568 C21.26090601 40.64153483 20.96918555 49.07497888 20.9921875 57.5546875 C20.99359238 58.58193436 20.99499725 59.60918121 20.9964447 60.66755676 C21.03900227 73.57544285 21.37121754 86.4790973 21.71069336 99.38208008 C22.00351535 110.69010134 22.18913262 121.96398923 21.71484375 133.26953125 C21.68234024 134.14010666 21.64983673 135.01068207 21.61634827 135.90763855 C21.55476784 137.11315117 21.55476784 137.11315117 21.49194336 138.34301758 C21.45773788 139.04074783 21.42353241 139.73847809 21.38829041 140.45735168 C21.0625 142.4375 21.0625 142.4375 19.97315979 144.50590515 C18.72519635 146.57656985 18.72519635 146.57656985 20.0625 149.4375 C19.7325 150.4275 19.4025 151.4175 19.0625 152.4375 C18.93866461 154.06111956 18.83649131 155.68646342 18.75 157.3125 C18.34737511 161.84037986 17.34508444 164.15491556 14.0625 167.4375 C13.7325 168.0975 13.4025 168.7575 13.0625 169.4375 C12.4025 169.4375 11.7425 169.4375 11.0625 169.4375 C10.94390625 170.02144531 10.8253125 170.60539063 10.703125 171.20703125 C9.66059312 174.83682213 7.65271883 177.70903915 5.0625 180.4375 C2.5625 181.0625 2.5625 181.0625 0.0625 181.4375 C-1.64430947 183.06303283 -3.31410195 184.72865995 -4.9375 186.4375 C-5.9275 186.7675 -6.9175 187.0975 -7.9375 187.4375 C-8.2675 189.0875 -8.5975 190.7375 -8.9375 192.4375 C-9.5975 192.4375 -10.2575 192.4375 -10.9375 192.4375 C-12.0072058 188.10269305 -12.0662239 183.89621966 -12.03515625 179.46044922 C-12.03296585 178.27618347 -12.03296585 178.27618347 -12.0307312 177.06799316 C-12.02693307 175.35636645 -12.02082481 173.64474365 -12.01266479 171.93313217 C-11.99982736 169.20550503 -11.99336468 166.47792701 -11.98852539 163.75027466 C-11.97519254 156.96345505 -11.9512188 150.17668111 -11.92712402 143.38989258 C-11.90717314 137.66951872 -11.89161384 131.94916366 -11.88156128 126.22876358 C-11.8751997 123.57547868 -11.86268471 120.92227265 -11.84985352 118.26901245 C-11.81641221 106.96009367 -12.22931313 95.72387887 -12.9375 84.4375 C-16.8883087 89.52969913 -16.8883087 89.52969913 -20.375 94.9375 C-22.39198135 98.16467016 -24.86274638 100.85290898 -27.4140625 103.66796875 C-29.00661251 105.3718521 -29.00661251 105.3718521 -29.9375 107.4375 C-29.2775 107.7675 -28.6175 108.0975 -27.9375 108.4375 C-31.92504483 113.70180801 -35.78906184 117.00651784 -41.6875 119.9375 C-42.78807739 120.50150513 -42.78807739 120.50150513 -43.91088867 121.0769043 C-52.01847263 125.1362806 -60.41706418 128.36482821 -68.9375 131.4375 C-70.59265625 132.05625 -70.59265625 132.05625 -72.28125 132.6875 C-83.7366626 136.78733188 -94.29294898 139.05668087 -105.9375 134.4375 C-112.01721297 130.83470713 -115.45452389 124.94618369 -117.9375 118.4375 C-118.18555785 115.37295201 -117.72651175 113.48834543 -116.9375 110.4375 C-112.60809334 91.31056908 -112.62381567 67.22979824 -117.9375 48.4375 C-118.35048349 46.48271149 -118.7477954 44.52450667 -119.125 42.5625 C-119.28355469 41.76070312 -119.44210937 40.95890625 -119.60546875 40.1328125 C-119.71503906 39.57335937 -119.82460938 39.01390625 -119.9375 38.4375 C-115.84173986 35.70699324 -113.20491594 36.21354874 -108.4140625 36.703125 C-99.31102199 38.62601446 -91.42214418 42.88770959 -85.9375 50.4375 C-84.609375 52.96484375 -84.609375 52.96484375 -83.6875 55.375 C-83.21570313 56.56416016 -83.21570313 56.56416016 -82.734375 57.77734375 C-80.92714357 63.81030749 -80.75611319 69.96819103 -80.62109375 76.21484375 C-80.60031265 77.02619278 -80.57953156 77.83754181 -80.55812073 78.67347717 C-80.49324357 81.24057339 -80.43403078 83.80776337 -80.375 86.375 C-80.33175582 88.12566036 -80.28813974 89.87631158 -80.24414062 91.62695312 C-80.1376265 95.89704171 -80.03618886 100.16722368 -79.9375 104.4375 C-58.1714658 99.14940778 -37.51554462 92.71933613 -18.171875 81.19921875 C-14.9375 79.4375 -14.9375 79.4375 -11.9375 79.4375 C-12.05637115 73.12432116 -12.18115369 66.81127786 -12.30981445 60.49829102 C-12.35280389 58.35606455 -12.39449967 56.21381167 -12.43481445 54.0715332 C-12.56479398 47.19224663 -12.72392759 40.31472823 -12.9375 33.4375 C-12.9694043 32.35474792 -12.9694043 32.35474792 -13.00195312 31.25012207 C-13.24302521 24.19832048 -13.93579765 19.14553462 -17.5625 13.0625 C-20.57490281 7.97832609 -21.41716011 5.24891869 -19.9375 -0.5625 C-14.79857392 -5.29031199 -5.72171558 -2.24652034 0 0 Z " fill="#FCFCFB" transform="translate(1045.9375,86.5625)"/>
<path d="M0 0 C8.12325825 2.90226051 16.28608615 8.0938106 20.7734375 15.58984375 C24.54294493 24.76876516 21.7411684 37.00109344 20.85327148 46.68066406 C19.41981627 62.52880247 19.02529011 78.29945244 19.11584473 94.20300293 C19.35688705 137.52979821 19.35688705 137.52979821 15.06640625 153.73828125 C14.40640625 154.39828125 13.74640625 155.05828125 13.06640625 155.73828125 C12.60234375 157.25421875 12.60234375 157.25421875 12.12890625 158.80078125 C11.77828125 159.77015625 11.42765625 160.73953125 11.06640625 161.73828125 C10.07640625 162.06828125 9.08640625 162.39828125 8.06640625 162.73828125 C7.33316829 164.75336483 7.33316829 164.75336483 7.06640625 166.73828125 C5.99390625 167.02703125 4.92140625 167.31578125 3.81640625 167.61328125 C-2.05356363 169.30561118 -2.05356363 169.30561118 -5.93359375 173.73828125 C-6.92359375 173.73828125 -7.91359375 173.73828125 -8.93359375 173.73828125 C-8.93359375 174.39828125 -8.93359375 175.05828125 -8.93359375 175.73828125 C-10.25359375 175.73828125 -11.57359375 175.73828125 -12.93359375 175.73828125 C-14.6564281 168.57363302 -15.21707817 161.84371913 -15.12109375 154.48828125 C-15.12044922 153.534375 -15.11980469 152.58046875 -15.11914062 151.59765625 C-15.07475863 144.49653633 -15.07475863 144.49653633 -14.43139648 141.04077148 C-13.76640911 136.62915591 -13.79076358 132.30650951 -13.80078125 127.8515625 C-13.79982452 126.91273727 -13.7988678 125.97391205 -13.79788208 125.00663757 C-13.79720394 123.03071017 -13.79903262 121.0547805 -13.80322266 119.07885742 C-13.80859413 116.05056797 -13.80325602 113.02242561 -13.796875 109.99414062 C-13.79753549 108.07161426 -13.79881606 106.14908798 -13.80078125 104.2265625 C-13.79875702 103.32029617 -13.79673279 102.41402985 -13.79464722 101.4803009 C-13.79779938 100.63900131 -13.80095154 99.79770172 -13.80419922 98.9309082 C-13.80499481 98.19177689 -13.80579041 97.45264557 -13.80661011 96.69111633 C-13.86465204 94.52176814 -13.86465204 94.52176814 -14.93359375 91.73828125 C-15.92359375 92.31578125 -16.91359375 92.89328125 -17.93359375 93.48828125 C-20.65836463 95.03896387 -23.40027189 96.54507732 -26.18359375 97.98828125 C-27.15039062 98.49101562 -27.15039062 98.49101562 -28.13671875 99.00390625 C-29.93359375 99.73828125 -29.93359375 99.73828125 -32.93359375 99.73828125 C-32.8771167 100.95821777 -32.82063965 102.1781543 -32.76245117 103.43505859 C-32.55830079 108.00028309 -32.38986314 112.56627142 -32.23168945 117.13330078 C-32.15860934 119.10243059 -32.07609723 121.0712355 -31.98364258 123.03955078 C-31.07216311 142.69363805 -31.07216311 142.69363805 -35.37548828 150.10351562 C-38.2657846 153.13601706 -41.88275251 154.11752365 -45.93359375 154.73828125 C-46.59359375 154.73828125 -47.25359375 154.73828125 -47.93359375 154.73828125 C-48.92359375 156.71828125 -48.92359375 156.71828125 -49.93359375 158.73828125 C-54.50945833 156.88660724 -55.67292076 154.30512401 -57.69921875 149.96484375 C-59.13779746 146.20450827 -60.2248083 142.45765374 -61.18359375 138.55078125 C-61.42819336 137.58289673 -61.42819336 137.58289673 -61.67773438 136.59545898 C-64.55533201 123.89882476 -64.19065196 110.28045992 -64.55859375 97.30078125 C-64.59277908 96.12997513 -64.59277908 96.12997513 -64.62765503 94.93551636 C-65.00613855 81.49052762 -64.68510521 68.16806931 -63.93359375 54.73828125 C-63.47652581 46.37854709 -63.7879594 41.09343896 -67.93359375 33.73828125 C-67.24265143 29.09012386 -65.24407951 25.00905532 -61.87109375 21.73828125 C-57.28027435 20.17544912 -53.46380745 21.2696152 -48.93359375 22.73828125 C-41.39826802 26.57981986 -36.01351084 33.33979615 -32.72314453 41.03393555 C-31.16749014 46.3623164 -31.52529465 51.79988749 -31.68359375 57.30078125 C-31.70164062 58.50025391 -31.7196875 59.69972656 -31.73828125 60.93554688 C-31.78505567 63.87064177 -31.85058792 66.80402528 -31.93359375 69.73828125 C-31.0415625 69.25617188 -30.14953125 68.7740625 -29.23046875 68.27734375 C-28.04819436 67.6392909 -26.86590173 67.00127185 -25.68359375 66.36328125 C-24.5234375 65.73679687 -23.36328125 65.1103125 -22.16796875 64.46484375 C-19.77122749 63.1854239 -17.37271084 61.93369012 -14.93359375 60.73828125 C-14.88460937 59.67351562 -14.835625 58.60875 -14.78515625 57.51171875 C-14.4303314 50.44144445 -13.98517475 43.48881863 -12.87109375 36.48828125 C-11.49525697 27.44111215 -10.23120822 18.91634304 -14.93359375 10.73828125 C-15.12109375 8.23828125 -15.12109375 8.23828125 -13.93359375 5.73828125 C-9.93122132 1.4783304 -6.10061846 -1.37293762 0 0 Z M13.06640625 129.73828125 C12.73640625 133.03828125 12.40640625 136.33828125 12.06640625 139.73828125 C14.49585785 136.09410385 14.228202 134.02586853 14.06640625 129.73828125 C13.73640625 129.73828125 13.40640625 129.73828125 13.06640625 129.73828125 Z M11.06640625 146.73828125 C11.06640625 148.38828125 11.06640625 150.03828125 11.06640625 151.73828125 C11.39640625 151.73828125 11.72640625 151.73828125 12.06640625 151.73828125 C12.06640625 150.08828125 12.06640625 148.43828125 12.06640625 146.73828125 C11.73640625 146.73828125 11.40640625 146.73828125 11.06640625 146.73828125 Z " fill="#FCFCFB" transform="translate(885.93359375,84.26171875)"/>
<path d="M0 0 C4.18054471 2.98096229 7.6337574 5.92114163 9 11 C8.69569795 14.38676908 7.92844087 17.18905228 6 20 C1.21819226 22.84351053 -3.38440616 23.89078836 -8.7734375 24.8671875 C-9.61484283 25.02865265 -10.45624817 25.1901178 -11.32315063 25.35647583 C-14.8905353 26.04087398 -18.46160124 26.70500681 -22.03271484 27.36962891 C-31.15564235 29.07859309 -40.22190001 30.85026332 -49.12890625 33.48828125 C-49.79107147 33.67458099 -50.45323669 33.86088074 -51.13546753 34.05282593 C-54.07816381 34.97640673 -55.76218812 35.69637226 -57.68579102 38.15234375 C-60.5592447 45.23235438 -58.76645361 54.55708906 -58 62 C-54.919471 58.99859418 -52.09291707 55.99322282 -49.5 52.5625 C-48.34164374 51.03532748 -47.1742039 49.51502156 -46 48 C-44.85724609 46.52080078 -44.85724609 46.52080078 -43.69140625 45.01171875 C-40.994305 41.7987701 -37.920317 39.55050283 -34.4375 37.25 C-33.87353516 36.86457031 -33.30957031 36.47914062 -32.72851562 36.08203125 C-27.14404091 32.30679571 -23.86154 30.428205 -17 31 C-10.74298045 32.5491267 -5.53804691 35.3978651 -1.7421875 40.78515625 C1.90418115 47.19817524 1.86933667 52.42650549 0.15234375 59.484375 C-2.55218718 68.46891842 -6.33750744 75.45469354 -12 83 C-11.34 82.34 -10.68 81.68 -10 81 C-8.59915374 80.55138188 -7.17811527 80.16479996 -5.75 79.8125 C1.7639025 77.67662392 10.0172886 74.16316429 16.1640625 69.28125 C18 68 18 68 22 68 C20.13669065 72.79136691 20.13669065 72.79136691 18.8125 74.8125 C17.7102947 77.2292871 17.7102947 77.2292871 18.625 80.875 C19.08444168 84.03293457 19.05029327 84.88743888 17.6875 87.9375 C6.03934446 102.5571238 -11.12828135 109.61246851 -27.65234375 117.10546875 C-37.54132597 121.59274623 -47.23982482 126.29056849 -56.5625 131.875 C-66.05641498 137.45363468 -66.05641498 137.45363468 -71.28125 136.6484375 C-75.43988849 135.52776544 -77.57544394 134.48987238 -80.4375 131.1875 C-81.92559368 128.15178889 -83.06255262 125.24501015 -84 122 C-84.33 121.01 -84.66 120.02 -85 119 C-78.12655421 111.46138204 -69.46361933 106.65603071 -60 103 C-59.34 103 -58.68 103 -58 103 C-57.73703125 102.43796875 -57.4740625 101.8759375 -57.203125 101.296875 C-55.89039598 98.79075596 -54.38314004 96.55993681 -52.75 94.25 C-52.12738281 93.36699219 -51.50476563 92.48398438 -50.86328125 91.57421875 C-49.26391883 89.36461742 -47.61666167 87.21129527 -45.9375 85.0625 C-42.37755128 80.35052543 -39.71090578 75.23218861 -37 70 C-36.22269531 68.57494141 -36.22269531 68.57494141 -35.4296875 67.12109375 C-31.44637093 59.60483559 -29.06592367 52.21508472 -27 44 C-31.87262366 42.90432235 -31.87262366 42.90432235 -36.5 44.8125 C-44.45804006 51.22801247 -48.7726178 62.30893359 -51 72 C-51.27546504 75.7503071 -51.22276878 79.47510032 -50.99169922 83.22680664 C-50.7524068 87.75029179 -51.08643715 90.45593949 -54 94 C-58.34150773 95.72022004 -62.36248688 96.66250187 -67 96 C-73.26013874 93.29189169 -77.62210911 88.87916649 -81 83 C-86.22163808 68.55240016 -79.76072543 52.14323866 -74 39 C-74.83917969 39.01353516 -74.83917969 39.01353516 -75.6953125 39.02734375 C-84.60918044 38.69773127 -93.4148676 34.99537805 -100.15625 29.12109375 C-102.98267553 25.91365498 -106.0251239 22.29464978 -105.9765625 17.859375 C-105.65104167 15.90625 -105.32552083 13.953125 -105 12 C-100.86606883 10.97105379 -97.17028184 11.02929124 -92.92578125 11.1953125 C-83.8869759 11.34686731 -75.50325914 9.57206787 -66.74682617 7.484375 C-64.20442064 6.8790288 -61.65703135 6.3007215 -59.10742188 5.7265625 C-49.68055083 3.56535898 -40.45377017 1.03899374 -31.28886414 -2.05935669 C-20.37505897 -5.6902647 -10.56406595 -4.59430519 0 0 Z " fill="#FCFDFB" transform="translate(137,87)"/>
<path d="M0 0 C7.62280805 4.1433281 10.38262328 9.48054922 13.4765625 17.2890625 C15.60022321 28.67960629 14.09148314 41.78771876 11.1640625 52.9765625 C15.14374423 52.86550161 19.12257861 52.73516017 23.1015625 52.6015625 C24.77702148 52.55515625 24.77702148 52.55515625 26.48632812 52.5078125 C32.27290968 52.30417913 37.64715941 51.82930723 43.26635742 50.42626953 C53.45198694 48.01253872 64.9866634 50.58322409 74.015625 55.54296875 C79.04051599 58.85301599 79.04051599 58.85301599 81.1640625 60.9765625 C81.39770131 62.82548196 81.57709885 64.68144281 81.7265625 66.5390625 C81.81035156 67.55097656 81.89414062 68.56289062 81.98046875 69.60546875 C82.04105469 70.38792969 82.10164062 71.17039062 82.1640625 71.9765625 C81.4421875 72.3684375 80.7203125 72.7603125 79.9765625 73.1640625 C77.03063331 74.85691842 77.03063331 74.85691842 74.9765625 77.6640625 C71.38488707 80.61721785 69.35479122 80.50852963 64.8359375 80.28125 C61.40434979 79.88992859 58.07910317 79.22543186 54.70703125 78.48828125 C45.01426671 76.53781711 35.00653347 76.6493948 25.1640625 76.9765625 C24.40883301 77.00024902 23.65360352 77.02393555 22.87548828 77.04833984 C9.92229984 77.57545782 -2.53214815 79.97863528 -15.1484375 82.7890625 C-15.89935669 82.9555127 -16.65027588 83.12196289 -17.4239502 83.29345703 C-26.38149911 85.29697112 -35.21420661 87.53740649 -43.95539856 90.35115051 C-52.10899266 92.88855138 -60.88001021 93.80402287 -69.03515625 90.796875 C-71.78657393 89.34797019 -74.28712924 87.75351868 -76.8359375 85.9765625 C-77.92068359 85.36748047 -77.92068359 85.36748047 -79.02734375 84.74609375 C-81.59605617 83.22562357 -83.52515075 81.88391692 -84.515625 78.9921875 C-85.01440647 75.65886744 -84.90219929 73.17534787 -83.8359375 69.9765625 C-83.27390625 70.03457031 -82.711875 70.09257812 -82.1328125 70.15234375 C-75.2032155 70.52433132 -69.01142776 69.28122132 -62.3359375 67.6015625 C-61.45131836 67.38024658 -60.56669922 67.15893066 -59.65527344 66.9309082 C-55.86756186 65.93807307 -53.13306039 65.17464443 -49.8359375 62.9765625 C-50.1659375 61.9865625 -50.4959375 60.9965625 -50.8359375 59.9765625 C-52.21165952 50.95794035 -51.89406016 41.78471828 -51.71118164 32.69458008 C-51.62652811 25.49435966 -51.69165955 18.42272349 -55.5859375 12.1640625 C-56.8359375 9.9765625 -56.8359375 9.9765625 -56.3359375 7.7890625 C-54.24714065 5.26509964 -53.06738317 4.71710213 -49.8359375 3.9765625 C-42.29892786 3.86159117 -36.80734632 5.45474713 -31.1796875 10.4453125 C-24.71194316 17.16669388 -23.47514862 25.55573981 -23.5234375 34.59179688 C-23.5440625 35.56439453 -23.5646875 36.53699219 -23.5859375 37.5390625 C-23.59109375 38.51552734 -23.59625 39.49199219 -23.6015625 40.49804688 C-23.66462435 46.39038885 -24.08806755 52.1323207 -24.8359375 57.9765625 C-21.3709375 57.4815625 -21.3709375 57.4815625 -17.8359375 56.9765625 C-18.3309375 53.0165625 -18.3309375 53.0165625 -18.8359375 48.9765625 C-20.3209375 49.4715625 -20.3209375 49.4715625 -21.8359375 49.9765625 C-22.75050753 44.41498802 -23.15680147 40.3008975 -20.8359375 34.9765625 C-16.9609375 36.8515625 -16.9609375 36.8515625 -15.8359375 37.9765625 C-14.99080548 32.05382277 -14.62369913 26.26956041 -14.5859375 20.2890625 C-14.5653125 19.46083984 -14.5446875 18.63261719 -14.5234375 17.77929688 C-14.49251496 12.95151508 -14.81966132 9.96017978 -17.8359375 5.9765625 C-18.8359375 3.9765625 -18.8359375 3.9765625 -18.5859375 1.9140625 C-18.2146875 0.955 -18.2146875 0.955 -17.8359375 -0.0234375 C-12.02894815 -1.95910062 -5.78396911 -2.0873277 0 0 Z " fill="#FCFDFB" transform="translate(459.8359375,167.0234375)"/>
<path d="M0 0 C7.95810425 3.39837705 13.6175438 6.67299987 17.1875 14.8125 C17.85621608 18.74120696 17.19975165 21.00549152 15.35546875 24.40234375 C13.03058845 28.93643092 11.48602271 33.57415296 10 38.4375 C9.74025391 39.25734375 9.48050781 40.0771875 9.21289062 40.921875 C8.15041818 44.3371611 7.22105451 47.61093664 6.6328125 51.14453125 C6.19440696 53.77111884 5.51407255 55.55196855 4.25 57.875 C2.70518869 60.80171525 1.3515591 63.70834239 0.1875 66.8125 C1.10982422 66.94205078 1.10982422 66.94205078 2.05078125 67.07421875 C8.73466981 68.23617067 8.73466981 68.23617067 11.25 71.4375 C11.559375 72.22125 11.86875 73.005 12.1875 73.8125 C11.5275 74.8025 10.8675 75.7925 10.1875 76.8125 C9.69980312 79.34685644 9.36679236 81.87738863 9.04296875 84.4375 C7.84032272 87.77635291 6.36817317 88.30992089 3.1875 89.8125 C0.65309941 90.84330284 -1.86735739 91.8201529 -4.4375 92.75 C-5.14028076 93.00869873 -5.84306152 93.26739746 -6.56713867 93.53393555 C-8.64718572 94.29832021 -10.72960498 95.05591677 -12.8125 95.8125 C-13.93011719 96.22242188 -15.04773438 96.63234375 -16.19921875 97.0546875 C-29.62535956 101.96625303 -29.62535956 101.96625303 -36.8125 100.8125 C-39.87216175 99.21636827 -42.46198344 97.34685584 -44.8125 94.8125 C-44.8125 94.1525 -44.8125 93.4925 -44.8125 92.8125 C-45.8025 93.4725 -46.7925 94.1325 -47.8125 94.8125 C-53.15384254 96.58259608 -58.39039999 97.61986667 -63.8125 95.8125 C-74.00440147 88.09854498 -75.34863675 73.39291849 -77.4375 61.625 C-77.64914795 60.44591064 -77.8607959 59.26682129 -78.07885742 58.05200195 C-80.43554512 44.63820821 -81.95872422 31.62810299 -82.0625 18 C-82.07192627 17.0618042 -82.08135254 16.1236084 -82.09106445 15.15698242 C-82.06910752 10.61521083 -81.98616851 6.92694397 -79.8125 2.8125 C-71.5832356 1.86701005 -66.31147161 3.71028783 -59.8125 8.8125 C-57.89484635 10.72566266 -56.415051 12.60899238 -54.8125 14.8125 C-54.1525 15.4725 -53.4925 16.1325 -52.8125 16.8125 C-52.18085937 16.30460937 -51.54921875 15.79671875 -50.8984375 15.2734375 C-44.60706979 10.4325292 -38.46403876 7.12330071 -31.09375 4.19921875 C-28.21346556 2.98195568 -25.80156035 1.62811512 -23.1875 -0.0625 C-15.64665626 -4.34770271 -7.82220116 -2.82892464 0 0 Z M-29.375 30.3125 C-36.370609 33.88601455 -42.25066886 33.36364485 -49.8125 31.8125 C-49.25627089 40.69175373 -47.98756011 49.31800496 -46.375 58.0625 C-46.15779297 59.27679688 -45.94058594 60.49109375 -45.71679688 61.7421875 C-44.61279188 67.82913394 -43.41077755 73.83568534 -41.8125 79.8125 C-37.62139153 79.19616052 -34.310432 78.245844 -30.8125 75.8125 C-28.1306967 70.10721404 -26.92387132 63.58974293 -25.6875 57.4375 C-25.51573242 56.58768555 -25.34396484 55.73787109 -25.16699219 54.86230469 C-23.46447452 45.886896 -23.01875553 36.92899448 -22.8125 27.8125 C-25.53906728 27.8125 -27.00432999 28.97691126 -29.375 30.3125 Z " fill="#FCFDFB" transform="translate(796.8125,126.1875)"/>
<path d="M0 0 C5.38170754 4.19610458 9.42631629 9.58518735 10.57507133 16.42613792 C10.74732167 19.4932142 10.76289018 22.52284407 10.72045898 25.59448242 C10.7244017 26.75039383 10.72834442 27.90630524 10.73240662 29.09724426 C10.73909594 32.90381815 10.70997166 36.70917995 10.6796875 40.515625 C10.67543093 43.18534657 10.67295733 45.85501529 10.67262268 48.5247345 C10.66800275 54.1223563 10.64444408 59.71963687 10.6081543 65.31713867 C10.56669107 71.72838549 10.5488542 78.13932417 10.54553455 84.55069751 C10.5422411 90.77370734 10.52732586 96.99662717 10.50554085 103.21959877 C10.49676029 105.83898634 10.48998216 108.45838153 10.48538017 111.07777977 C10.35645927 162.71522522 10.35645927 162.71522522 2.12109375 171.72265625 C1.79109375 172.40328125 1.46109375 173.08390625 1.12109375 173.78515625 C-1.73012691 179.30939627 -7.33778084 182.33968522 -12.87890625 184.72265625 C-16.44140625 185.03515625 -16.44140625 185.03515625 -18.87890625 184.72265625 C-22.26508098 176.62658992 -22.25317335 169.16266105 -22.13671875 160.48828125 C-22.12855353 159.00446298 -22.12190096 157.52063571 -22.1166687 156.0368042 C-22.09963198 152.13868248 -22.0654897 148.24091462 -22.02661133 144.34295654 C-21.96741026 138.16265119 -21.93123645 131.98214703 -21.89861298 125.801651 C-21.89070605 124.30534027 -21.88219006 122.80903262 -21.8730545 121.31272888 C-21.80514321 109.4233745 -22.08959239 97.58827158 -22.87890625 85.72265625 C-24.51835205 86.61428467 -24.51835205 86.61428467 -26.19091797 87.52392578 C-27.1688028 88.05545258 -27.1688028 88.05545258 -28.16644287 88.59771729 C-29.51604995 89.33216714 -30.86416436 90.06936159 -32.21142578 90.80810547 C-38.48009763 94.18302101 -44.60533394 96.93909852 -51.87890625 95.72265625 C-59.86316235 92.97068632 -68.61445561 88.75521292 -74.00390625 82.09765625 C-75.01209595 79.36114135 -74.94155978 78.3945861 -73.87890625 75.72265625 C-71.16555053 74.61167596 -68.62362037 73.76261595 -65.81640625 72.97265625 C-57.2311715 70.34719958 -49.51473059 66.83299971 -41.60205078 62.63037109 C-39.19682045 61.36334837 -36.7573119 60.16917863 -34.31640625 58.97265625 C-32.8281668 58.24082474 -31.34961172 57.48911528 -29.87890625 56.72265625 C-29.28537354 56.48160156 -28.69184082 56.24054688 -28.08032227 55.9921875 C-26.06463216 55.06955757 -24.5198689 54.2183695 -22.87890625 52.72265625 C-22.13680037 49.56147796 -21.89611777 47.39060143 -21.94140625 44.22265625 C-21.92891846 43.39258057 -21.91643066 42.56250488 -21.90356445 41.70727539 C-21.88162981 39.94706187 -21.87476761 38.18660553 -21.88183594 36.42626953 C-21.87892268 33.73781481 -21.79869918 31.06146401 -21.69921875 28.375 C-21.35026113 16.693171 -21.35026113 16.693171 -24.9765625 5.69921875 C-26.38287042 2.61873473 -26.35076286 0.02565251 -25.87890625 -3.27734375 C-24.43693138 -5.44030605 -23.48086635 -6.0771155 -21.03515625 -6.890625 C-13.72139069 -8.20233295 -5.87056923 -3.99101068 0 0 Z " fill="#FCFDFB" transform="translate(1238.87890625,88.27734375)"/>
<path d="M0 0 C2.48182721 2.0305859 3.74046028 3.76509641 5.0625 6.6875 C5.1875 9.25 5.1875 9.25 5.0625 11.6875 C5.35294914 13.03082728 5.67205794 14.36975804 6.0625 15.6875 C1.77034433 19.68424415 -2.58808116 21.21521093 -8.0625 22.9375 C-8.87332031 23.205625 -9.68414063 23.47375 -10.51953125 23.75 C-16.50007972 25.6875 -16.50007972 25.6875 -19.9375 25.6875 C-18.9475 27.0178125 -18.9475 27.0178125 -17.9375 28.375 C-14.58145553 34.42312331 -14.75902664 41.26121017 -16.51171875 47.84423828 C-17.89045339 52.23847885 -19.51327616 56.52817034 -21.20996094 60.80810547 C-22.21474928 63.40369629 -23.08368685 66.03902135 -23.9375 68.6875 C-22.83148437 68.84412109 -22.83148437 68.84412109 -21.703125 69.00390625 C-11.94612127 71.41559502 -3.45015696 82.46957805 1.55859375 90.640625 C2.38163848 92.04671384 3.19553129 93.4582013 4 94.875 C4.37769531 95.54007568 4.75539063 96.20515137 5.14453125 96.89038086 C8.49816064 103.04762606 10.34882682 108.85377033 10.3125 115.9375 C10.32023437 117.46117187 10.32023437 117.46117187 10.328125 119.015625 C10.0625 121.6875 10.0625 121.6875 8.0625 124.6875 C7.0725 125.0175 6.0825 125.3475 5.0625 125.6875 C4.4025 126.6775 3.7425 127.6675 3.0625 128.6875 C-3.69781791 128.51536228 -8.7183235 127.11318286 -13.9375 122.6875 C-17.40642427 118.90260782 -19.42053664 114.8176194 -21.375 110.125 C-21.6750293 109.42334717 -21.97505859 108.72169434 -22.28417969 107.9987793 C-24.51268251 102.76940834 -26.67803875 97.5129898 -28.796875 92.23828125 C-29.98701102 89.57677844 -31.38992152 87.15562085 -32.9375 84.6875 C-33.55496094 85.64269531 -34.17242188 86.59789062 -34.80859375 87.58203125 C-40.09686919 95.68539026 -45.6271832 103.33328321 -51.9375 110.6875 C-52.58976562 111.48542969 -53.24203125 112.28335938 -53.9140625 113.10546875 C-54.51992187 113.83378906 -55.12578125 114.56210938 -55.75 115.3125 C-56.27207031 115.94414062 -56.79414062 116.57578125 -57.33203125 117.2265625 C-60.74427645 120.33162261 -64.50892282 119.66353568 -68.9140625 119.58984375 C-71.78824882 119.72855931 -74.24918304 120.7099302 -76.9375 121.6875 C-78.2575 121.6875 -79.5775 121.6875 -80.9375 121.6875 C-82.3915625 122.1825 -82.3915625 122.1825 -83.875 122.6875 C-86.79725764 123.64170658 -88.89795661 123.86629667 -91.9375 123.6875 C-90.30256088 118.49476884 -87.08487229 114.55714778 -83.875 110.25 C-75.05218172 98.19872709 -67.34468338 86.2345617 -60.9375 72.6875 C-60.45925781 71.72199219 -59.98101563 70.75648438 -59.48828125 69.76171875 C-54.16085457 58.74197315 -50.14074639 47.16991557 -45.9375 35.6875 C-47.77054688 36.41453125 -47.77054688 36.41453125 -49.640625 37.15625 C-58.14378332 40.32717271 -64.98454508 38.96036755 -73.16015625 35.24609375 C-78.12070995 32.46232311 -81.52432518 29.04279136 -84.4375 24.1875 C-85.10314372 20.85928139 -84.46654029 18.01734183 -83.9375 14.6875 C-82.69613281 14.70103516 -82.69613281 14.70103516 -81.4296875 14.71484375 C-63.65411849 14.27333394 -47.1963621 7.24226689 -31.23266602 -0.11108398 C-20.98432243 -4.65465423 -10.33586008 -4.61815025 0 0 Z " fill="#FCFCFB" transform="translate(1175.9375,114.3125)"/>
<path d="M0 0 C1.87166607 1.78857809 2.78940304 3.16626214 3.671875 5.59765625 C3.73586144 8.42372381 3.2159722 10.78648736 2.671875 13.59765625 C2.011875 14.25765625 1.351875 14.91765625 0.671875 15.59765625 C-0.648125 15.59765625 -1.968125 15.59765625 -3.328125 15.59765625 C-3.658125 16.58765625 -3.988125 17.57765625 -4.328125 18.59765625 C-7.15779543 20.01249147 -9.47570798 19.65572996 -12.63671875 19.58984375 C-14.58179321 19.56180664 -14.58179321 19.56180664 -16.56616211 19.53320312 C-17.59602737 19.51761353 -17.59602737 19.51761353 -18.646698 19.50170898 C-31.47125686 19.32587069 -43.74244517 19.90416044 -56.328125 22.59765625 C-55.97878906 23.39429688 -55.62945312 24.1909375 -55.26953125 25.01171875 C-54.81449219 26.07132813 -54.35945313 27.1309375 -53.890625 28.22265625 C-53.43816406 29.26679688 -52.98570312 30.3109375 -52.51953125 31.38671875 C-50.68708282 36.32531746 -50.20151542 41.0384548 -50.1953125 46.28125 C-50.19192871 47.90329346 -50.19192871 47.90329346 -50.18847656 49.55810547 C-50.19331055 50.70553223 -50.19814453 51.85295898 -50.203125 53.03515625 C-50.20795898 54.22641113 -50.21279297 55.41766602 -50.21777344 56.64501953 C-50.24202701 60.29615205 -50.28138858 63.94674624 -50.328125 67.59765625 C-50.34069336 68.68675293 -50.35326172 69.77584961 -50.36621094 70.89794922 C-50.54159399 82.38195967 -50.89090926 92.84514741 -55.328125 103.59765625 C-56.318125 103.59765625 -57.308125 103.59765625 -58.328125 103.59765625 C-58.58207031 104.21511719 -58.83601563 104.83257812 -59.09765625 105.46875 C-60.52035092 107.93023761 -61.46262974 108.50152775 -64.015625 109.66015625 C-64.72589844 109.99144531 -65.43617188 110.32273437 -66.16796875 110.6640625 C-68.12598224 111.51029256 -70.09754769 112.30628087 -72.078125 113.09765625 C-75.26388883 114.56800879 -77.057988 115.96429732 -79.328125 118.59765625 C-84.47429747 109.46735026 -85.72849736 99.29305578 -83.83959961 88.91308594 C-83.27923664 85.28075701 -83.11521714 81.76760173 -83.01171875 78.09375 C-82.99089233 77.38121063 -82.97006592 76.66867126 -82.9486084 75.93453979 C-82.88304111 73.63484532 -82.82398594 71.33504401 -82.765625 69.03515625 C-82.72275591 67.45662385 -82.67986847 65.87809195 -82.63696289 64.29956055 C-82.33354396 52.73095924 -82.20715795 41.17017058 -82.328125 29.59765625 C-94.90224847 32.93925229 -107.40214833 36.45314991 -119.82446289 40.32446289 C-120.73446045 40.60668701 -121.64445801 40.88891113 -122.58203125 41.1796875 C-123.37939697 41.42952393 -124.1767627 41.67936035 -124.99829102 41.93676758 C-132.70225445 44.12210018 -141.58740248 45.15279324 -149.13671875 41.921875 C-154.29840544 38.8027809 -159.00812392 34.7952573 -163.328125 30.59765625 C-163.328125 29.93765625 -163.328125 29.27765625 -163.328125 28.59765625 C-163.988125 28.59765625 -164.648125 28.59765625 -165.328125 28.59765625 C-163.453125 22.72265625 -163.453125 22.72265625 -162.328125 21.59765625 C-160.200428 21.35449088 -158.07202117 21.1167458 -155.94140625 20.90063477 C-143.8153613 19.61751558 -132.14140325 17.08602723 -120.328125 14.16015625 C-119.54787964 13.96719971 -118.76763428 13.77424316 -117.96374512 13.57543945 C-110.21156643 11.6495082 -102.48344703 9.64729431 -94.7734375 7.55859375 C-86.63089094 5.37349297 -78.42745447 3.50649624 -70.203125 1.66015625 C-67.1181163 0.96518692 -64.03350552 0.26847865 -60.94921875 -0.4296875 C-59.82644279 -0.68363785 -59.82644279 -0.68363785 -58.6809845 -0.94271851 C-54.35453318 -1.9262026 -50.04211707 -2.9520691 -45.73828125 -4.03125 C-44.32216553 -4.38425171 -44.32216553 -4.38425171 -42.87744141 -4.74438477 C-41.21442575 -5.16332543 -39.55362565 -5.59123705 -37.89599609 -6.03100586 C-25.09779091 -9.24107507 -10.9071042 -7.68827834 0 0 Z " fill="#FCFDFB" transform="translate(379.328125,178.40234375)"/>
<path d="M0 0 C1.6757106 1.13256603 3.34385076 2.27651701 5 3.4375 C5.99 4.0975 6.98 4.7575 8 5.4375 C8 6.0975 8 6.7575 8 7.4375 C8.99 7.7675 9.98 8.0975 11 8.4375 C13.980196 13.017159 14.26519574 16.19774431 13.75 21.5625 C13.62391253 22.98286282 13.5003327 24.40344987 13.37890625 25.82421875 C13.31203613 26.5723584 13.24516602 27.32049805 13.17626953 28.09130859 C12.99479595 30.50676714 12.90435395 32.91074822 12.83984375 35.33203125 C12.40172355 50.967446 9.92324222 65.26712119 3 79.4375 C2.33871094 80.88382813 2.33871094 80.88382813 1.6640625 82.359375 C-1.7252542 88.98820435 -1.7252542 88.98820435 -5.3828125 90.27734375 C-7.64539243 90.53622829 -9.73196227 90.60886285 -12 90.4375 C-12.33 92.7475 -12.66 95.0575 -13 97.4375 C-14.485 96.9425 -14.485 96.9425 -16 96.4375 C-16.33 95.4475 -16.66 94.4575 -17 93.4375 C-18.65 95.0875 -20.3 96.7375 -22 98.4375 C-23.485 97.9425 -23.485 97.9425 -25 97.4375 C-25.08933402 91.79031359 -24.75824407 86.35706722 -24.125 80.75 C-22.0122606 60.68856163 -20.57717568 40.61561635 -21 20.4375 C-32.33482731 23.60799985 -43.21709037 27.07525858 -53.91015625 32.01953125 C-61.33914855 35.42879067 -67.79303342 35.04300744 -75.421875 32.5390625 C-83.63735551 29.02881174 -89.99347595 22.89703005 -96 16.4375 C-94.52918577 10.7993788 -94.52918577 10.7993788 -92.33203125 9.296875 C-88.35149771 7.83001172 -84.19321297 7.64313226 -79.99609375 7.1953125 C-75.78213043 6.55688265 -71.98469625 5.01986032 -68.01342773 3.51611328 C-62.70701798 1.61675994 -57.26105514 0.24017938 -51.8125 -1.1875 C-50.68908203 -1.4865625 -49.56566406 -1.785625 -48.40820312 -2.09375 C-46.23804179 -2.66974115 -44.06661986 -3.24100956 -41.89379883 -3.80688477 C-40.14612519 -4.26322914 -38.4004573 -4.72750085 -36.65893555 -5.20678711 C-23.82878025 -8.65803882 -11.19399114 -7.04209141 0 0 Z " fill="#FCFDFB" transform="translate(501,101.5625)"/>
<path d="M0 0 C7.49570338 4.42346063 11.4614625 9.90430137 14.2109375 18.0859375 C15.82144483 26.01215983 12.88213445 32.42539848 8.80859375 39.02734375 C9.13859375 39.68734375 9.46859375 40.34734375 9.80859375 41.02734375 C11.67508223 41.47475389 11.67508223 41.47475389 13.9375 41.6328125 C14.80036621 41.7253833 15.66323242 41.8179541 16.55224609 41.91333008 C17.48246582 42.01282959 18.41268555 42.1123291 19.37109375 42.21484375 C31.31606544 43.7077108 45.89389317 47.05433095 53.80859375 57.02734375 C57.45632343 62.30608247 58.45550008 66.66609814 57.80859375 73.02734375 C55.80859375 76.02734375 55.80859375 76.02734375 53.92236328 76.60717773 C46.30238627 77.34706566 39.20767232 76.33445846 31.68359375 75.08984375 C30.4409375 74.89455078 29.19828125 74.69925781 27.91796875 74.49804688 C24.8795562 74.01891259 21.84344323 73.5284676 18.80859375 73.02734375 C18.80859375 71.70734375 18.80859375 70.38734375 18.80859375 69.02734375 C20.12859375 68.69734375 21.44859375 68.36734375 22.80859375 68.02734375 C22.80859375 67.36734375 22.80859375 66.70734375 22.80859375 66.02734375 C22.02226562 65.79273438 21.2359375 65.558125 20.42578125 65.31640625 C15.76674686 63.65605922 11.38563714 61.54790683 6.93359375 59.40234375 C6.05445313 58.98210937 5.1753125 58.561875 4.26953125 58.12890625 C2.11436497 57.09817455 -0.03920547 56.06424949 -2.19140625 55.02734375 C-2.44148438 55.74921875 -2.6915625 56.47109375 -2.94921875 57.21484375 C-4.30279284 60.27953979 -5.93300662 62.45116306 -8.06640625 65.02734375 C-8.74445313 65.85234375 -9.4225 66.67734375 -10.12109375 67.52734375 C-10.80429687 68.35234375 -11.4875 69.17734375 -12.19140625 70.02734375 C-12.89523437 70.95546875 -13.5990625 71.88359375 -14.32421875 72.83984375 C-15.24847656 73.92265625 -15.24847656 73.92265625 -16.19140625 75.02734375 C-16.85140625 75.02734375 -17.51140625 75.02734375 -18.19140625 75.02734375 C-18.56265625 75.95546875 -18.56265625 75.95546875 -18.94140625 76.90234375 C-20.41911387 79.41444671 -21.63095802 79.78841719 -24.19140625 81.02734375 C-24.68640625 82.51234375 -24.68640625 82.51234375 -25.19140625 84.02734375 C-25.85140625 84.02734375 -26.51140625 84.02734375 -27.19140625 84.02734375 C-27.19140625 84.68734375 -27.19140625 85.34734375 -27.19140625 86.02734375 C-28.94140625 87.53515625 -28.94140625 87.53515625 -31.19140625 89.15234375 C-31.93390625 89.69117188 -32.67640625 90.23 -33.44140625 90.78515625 C-34.01890625 91.19507813 -34.59640625 91.605 -35.19140625 92.02734375 C-36.18140625 91.53234375 -36.18140625 91.53234375 -37.19140625 91.02734375 C-36.86140625 90.36734375 -36.53140625 89.70734375 -36.19140625 89.02734375 C-37.61453125 90.01734375 -37.61453125 90.01734375 -39.06640625 91.02734375 C-42.19140625 93.02734375 -42.19140625 93.02734375 -44.19140625 93.02734375 C-44.68640625 92.03734375 -44.68640625 92.03734375 -45.19140625 91.02734375 C-45.97515625 91.52234375 -46.75890625 92.01734375 -47.56640625 92.52734375 C-50.19140625 94.02734375 -50.19140625 94.02734375 -52.19140625 94.02734375 C-52.19140625 92.70734375 -52.19140625 91.38734375 -52.19140625 90.02734375 C-53.67640625 90.52234375 -53.67640625 90.52234375 -55.19140625 91.02734375 C-57.16535814 91.28622269 -59.13969539 91.54315653 -61.1171875 91.7734375 C-63.82406654 92.10478804 -66.5055546 92.55731971 -69.19140625 93.02734375 C-69.17002467 86.2814563 -64.79008327 82.91907 -60.31640625 78.46484375 C-58.85661685 76.98837837 -57.40075208 75.50802031 -55.94921875 74.0234375 C-55.30098145 73.37560303 -54.65274414 72.72776855 -53.98486328 72.06030273 C-52.06836461 70.0190245 -52.06836461 70.0190245 -50.58154297 67.27758789 C-50.12279785 66.53500732 -49.66405273 65.79242676 -49.19140625 65.02734375 C-48.53140625 65.02734375 -47.87140625 65.02734375 -47.19140625 65.02734375 C-46.94390625 64.48464844 -46.69640625 63.94195312 -46.44140625 63.3828125 C-44.91764833 60.51148117 -43.08597389 57.98208897 -41.19140625 55.33984375 C-33.89794659 44.97348999 -27.67967454 33.93748763 -21.69140625 22.77734375 C-21.36519287 22.16971191 -21.03897949 21.56208008 -20.70288086 20.93603516 C-16.99451018 14.03070492 -16.99451018 14.03070492 -16.19140625 6.40234375 C-16.38834767 2.79585401 -16.32275026 2.22435977 -14.19140625 -0.97265625 C-9.35706619 -2.58410294 -4.66586234 -2.07094425 0 0 Z M-33.81640625 85.52734375 C-34.27015625 86.02234375 -34.72390625 86.51734375 -35.19140625 87.02734375 C-34.86140625 87.68734375 -34.53140625 88.34734375 -34.19140625 89.02734375 C-32.87140625 87.37734375 -31.55140625 85.72734375 -30.19140625 84.02734375 C-32.31505106 83.80125038 -32.31505106 83.80125038 -33.81640625 85.52734375 Z " fill="#FCFCFB" transform="translate(302.19140625,81.97265625)"/>
<path d="M0 0 C4.34692381 2.84221941 6.07654822 4.65695158 7.125 9.625 C7.66765125 12.02343674 7.66765125 12.02343674 9 14 C11.95047259 15.19006885 14.79450103 15.70688424 17.921875 16.2734375 C24.98185315 17.93987904 29.83660642 23.32264511 34 29 C36.14191087 35.4257326 35.5610882 42.78021437 33 49 C31.3777546 50.70993434 29.70586575 52.37347684 28 54 C27.24893328 55.32112096 26.52111922 56.65563375 25.8125 58 C23.23042128 62.30346453 20.25187367 63.738235 15.7421875 65.71875 C12.78812444 67.09899599 10.20914789 68.75128498 7.5 70.5625 C-3.03679587 77.32139707 -11.91008906 79.74567608 -24.4375 77.33984375 C-31.8117197 75.36826418 -36.83853644 72.60282386 -42 67 C-42.49113281 66.50371094 -42.98226562 66.00742188 -43.48828125 65.49609375 C-48.55253873 60.01354951 -50.31982304 54.55456332 -50.0625 47.1875 C-49.27051014 40.48086246 -46.67151119 35.58392471 -43 30 C-42.44441406 29.12859375 -41.88882813 28.2571875 -41.31640625 27.359375 C-36.84628304 20.78396796 -31.55525968 15.33403255 -25.74804688 9.94604492 C-22.09852784 6.47608464 -20.34787771 3.9762188 -19 -1 C-12.77997999 -4.90972686 -6.11566848 -3.2246252 0 0 Z M-7.875 30.25 C-8.73867188 31.03890625 -9.60234375 31.8278125 -10.4921875 32.640625 C-17.8570697 39.31630887 -17.8570697 39.31630887 -20.5 48.5625 C-20.36471743 51.94456426 -20.16000196 52.79499749 -18 55.5625 C-13.20180477 57.86163521 -9.45577449 57.67562266 -4.47265625 56.3046875 C1.34959711 54.22093367 5.052458 51.75729421 9 47 C10.24122431 43.27632708 10.45060151 40.92667034 10 37 C7.36972042 32.18958935 4.087072 28.26092089 -1 26 C-4.19284917 26 -5.57960407 28.13850819 -7.875 30.25 Z " fill="#FCFDFB" transform="translate(621,70)"/>
<path d="M0 0 C1.32 0 2.64 0 4 0 C4.1019306 8.94724162 4.05788777 17.87350548 3.625 26.8125 C3.59414307 27.57030762 3.56328613 28.32811523 3.53149414 29.10888672 C3.32363959 32.93323768 2.79868844 35.64505504 1 39 C1.33 39.99 1.66 40.98 2 42 C1.67 42.99 1.34 43.98 1 45 C0.81672435 47.02010497 0.6854574 49.0371894 0.57421875 51.0625 C-0.21708468 53.73247618 -1.70800621 54.53605187 -4 56 C-3.8583467 53.12473931 -3.71181468 50.24986464 -3.5625 47.375 C-3.52318359 46.56675781 -3.48386719 45.75851563 -3.44335938 44.92578125 C-3.25594273 41.37928162 -3.00685476 38.03593681 -2.33984375 34.5390625 C-2.22769531 33.70117188 -2.11554688 32.86328125 -2 32 C-2.66 31.34 -3.32 30.68 -4 30 C-3.50959229 29.59910156 -3.01918457 29.19820312 -2.51391602 28.78515625 C-0.576607 26.50074994 -0.67264036 25.39411012 -0.77734375 22.4375 C-0.79603516 21.55835938 -0.81472656 20.67921875 -0.83398438 19.7734375 C-0.86814453 18.85820312 -0.90230469 17.94296875 -0.9375 17 C-0.99748189 15.18778115 -1.04864504 13.37524313 -1.08984375 11.5625 C-1.11941162 10.75941406 -1.14897949 9.95632812 -1.17944336 9.12890625 C-1 7 -1 7 1 4 C0.69159401 1.84725052 0.69159401 1.84725052 0 0 Z " fill="#ECF3EF" transform="translate(1064,194)"/>
<path d="M0 0 C0.66 0 1.32 0 2 0 C2.42317708 1.88802083 2.84635417 3.77604167 3.26953125 5.6640625 C3.9274662 8.11949299 3.9274662 8.11949299 5.55859375 10.46875 C7.76256772 15.86818758 7.35812982 21.10371938 7.25 26.875 C7.23251709 28.07922607 7.21503418 29.28345215 7.19702148 30.52416992 C7.15726425 32.92135417 7.11047019 35.31843351 7.05615234 37.71533203 C7.00816202 40.52255722 7.02538602 43.31458011 7.08203125 46.12109375 C7.1310299 55.65985324 7.1310299 55.65985324 4.03515625 59.328125 C1.69121843 61.01484849 -0.23044649 62.18856941 -3 63 C-3.99 62.67 -4.98 62.34 -6 62 C-5.01 61.505 -5.01 61.505 -4 61 C-3.67 60.01 -3.34 59.02 -3 58 C0.0625 56.3125 0.0625 56.3125 3 55 C5.82944801 30.8941221 5.82944801 30.8941221 0.890625 7.921875 C-0.3469357 5.25134927 -0.30420066 2.88990623 0 0 Z " fill="#F2F8F5" transform="translate(1213,86)"/>
<path d="M0 0 C0.66 0.66 1.32 1.32 2 2 C1.34 2 0.68 2 0 2 C0.32742188 2.65355469 0.65484375 3.30710938 0.9921875 3.98046875 C2.2653013 7.7948756 2.21718944 11.34480837 2.125 15.3125 C2.11597656 16.05306641 2.10695313 16.79363281 2.09765625 17.55664062 C2.07424213 19.37123467 2.03837615 21.18566071 2 23 C1.34 23 0.68 23 0 23 C0.020625 24.051875 0.04125 25.10375 0.0625 26.1875 C0.01103198 29.32704904 -0.26517187 31.96883396 -1 35 C-3.37706418 31.33460332 -3.05094317 28.50943165 -2.625 24.25 C-2.51414062 23.07953125 -2.40328125 21.9090625 -2.2890625 20.703125 C-2.19367188 19.81109375 -2.09828125 18.9190625 -2 18 C-2.66 18 -3.32 18 -4 18 C-5.0257259 13.58937864 -5.03684712 11.07369424 -3 7 C-2.34 7 -1.68 7 -1 7 C-1.020625 6.030625 -1.04125 5.06125 -1.0625 4.0625 C-1 1 -1 1 0 0 Z " fill="#F2F2EF" transform="translate(1246,215)"/>
<path d="M0 0 C0.33 0 0.66 0 1 0 C0.99666908 0.84231422 0.99666908 0.84231422 0.99327087 1.7016449 C0.97121694 7.52480435 0.95609295 13.34795201 0.94506836 19.17114258 C0.94002692 21.34692873 0.93319393 23.52271147 0.92456055 25.69848633 C0.91248662 28.81853067 0.90676995 31.93853038 0.90234375 35.05859375 C0.89718246 36.03775253 0.89202118 37.01691132 0.88670349 38.02574158 C0.88662796 38.92659988 0.88655243 39.82745819 0.88647461 40.75561523 C0.88314369 41.95141457 0.88314369 41.95141457 0.87974548 43.17137146 C0.79949544 45.01922281 0.79949544 45.01922281 2 46 C1.90903444 48.86688248 1.76232012 51.70300515 1.5625 54.5625 C1.51029297 55.36880859 1.45808594 56.17511719 1.40429688 57.00585938 C1.27422624 59.00421738 1.13770944 61.00215386 1 63 C0.67 63 0.34 63 0 63 C-0.06058594 62.22914063 -0.12117188 61.45828125 -0.18359375 60.6640625 C-0.26738281 59.66117188 -0.35117188 58.65828125 -0.4375 57.625 C-0.51871094 56.62726563 -0.59992188 55.62953125 -0.68359375 54.6015625 C-0.84965626 52.02072387 -0.84965626 52.02072387 -2 50 C-3.98 50 -5.96 50 -8 50 C-8 49.01 -8 48.02 -8 47 C-5.35261084 45.5393715 -4.10551666 45 -1 45 C-0.67 30.15 -0.34 15.3 0 0 Z " fill="#E9F0EC" transform="translate(1035,121)"/>
<path d="M0 0 C0.33 0 0.66 0 1 0 C1.02689216 1.47906892 1.04634621 2.95827483 1.0625 4.4375 C1.07410156 5.26121094 1.08570313 6.08492187 1.09765625 6.93359375 C1 9 1 9 0 10 C-0.09968672 12.10221693 -0.12968203 14.20792604 -0.125 16.3125 C-0.12757812 17.46363281 -0.13015625 18.61476562 -0.1328125 19.80078125 C-0.0239358 22.42342882 0.08179204 24.55338259 1 27 C1.66 27.33 2.32 27.66 3 28 C3.61875 29.155 4.2375 30.31 4.875 31.5 C6.39675627 34.41042691 6.39675627 34.41042691 9.25 35.9375 C9.8275 35.958125 10.405 35.97875 11 36 C11 36.66 11 37.32 11 38 C6.03705804 37.20592929 3.71930691 36.16562407 0.625 32.125 C-3.1069101 26.87637778 -3.20632764 22.00361563 -3.25 15.6875 C-3.270625 14.95337891 -3.29125 14.21925781 -3.3125 13.46289062 C-3.34962176 8.23336311 -2.34734414 4.67615661 0 0 Z " fill="#F2F8F7" transform="translate(58,142)"/>
<path d="M0 0 C0.66 0 1.32 0 2 0 C1.47315196 4.07239298 0.36950851 6.21598637 -2.375 9.25 C-2.98085937 9.93578125 -3.58671875 10.6215625 -4.2109375 11.328125 C-6 13 -6 13 -9 14 C-9.66 10.7 -10.32 7.4 -11 4 C-5.375 2 -5.375 2 -2 2 C-1.34 1.34 -0.68 0.68 0 0 Z " fill="#F2F1F1" transform="translate(1131,210)"/>
<path d="M0 0 C1.32 0 2.64 0 4 0 C4 1.98 4 3.96 4 6 C3.34 6 2.68 6 2 6 C2.00523682 6.73637695 2.01047363 7.47275391 2.01586914 8.23144531 C2.03666867 11.57095485 2.04966968 14.91045074 2.0625 18.25 C2.07087891 19.40886719 2.07925781 20.56773437 2.08789062 21.76171875 C2.09111328 22.87675781 2.09433594 23.99179688 2.09765625 25.140625 C2.10289307 26.16704102 2.10812988 27.19345703 2.11352539 28.25097656 C2.01336951 30.67625656 1.69923078 32.68697361 1 35 C0.34 35 -0.32 35 -1 35 C-1.495 33.515 -1.495 33.515 -2 32 C-2.66 31.34 -3.32 30.68 -4 30 C-3.50959229 29.59910156 -3.01918457 29.19820312 -2.51391602 28.78515625 C-0.576607 26.50074994 -0.67264036 25.39411012 -0.77734375 22.4375 C-0.79603516 21.55835938 -0.81472656 20.67921875 -0.83398438 19.7734375 C-0.86814453 18.85820312 -0.90230469 17.94296875 -0.9375 17 C-0.99748189 15.18778115 -1.04864504 13.37524313 -1.08984375 11.5625 C-1.11941162 10.75941406 -1.14897949 9.95632812 -1.17944336 9.12890625 C-1 7 -1 7 1 4 C0.69159401 1.84725052 0.69159401 1.84725052 0 0 Z " fill="#ECF1ED" transform="translate(1064,194)"/>
<path d="M0 0 C0.33 0 0.66 0 1 0 C2.47054649 19.22214336 2.47054649 19.22214336 2 27 C1.67 27.33 1.34 27.66 1 28 C0.76298761 30.85877909 0.57780818 33.69883297 0.4375 36.5625 C0.39431641 37.36880859 0.35113281 38.17511719 0.30664062 39.00585938 C0.20024738 41.00368805 0.09959112 43.0018207 0 45 C-0.33 45 -0.66 45 -1 45 C-1.19872431 43.02192882 -1.38333034 41.04243817 -1.5625 39.0625 C-1.66691406 37.96035156 -1.77132813 36.85820312 -1.87890625 35.72265625 C-1.97113823 32.88726677 -1.87813662 30.52038043 -1.52734375 27.7421875 C-0.86835915 22.5042331 -0.92591337 17.3337639 -1 12.0625 C-1.02543651 10.1992759 -1.04649431 8.33598522 -1.0625 6.47265625 C-1.07410156 5.66062744 -1.08570313 4.84859863 -1.09765625 4.01196289 C-1 2 -1 2 0 0 Z " fill="#EFF8F4" transform="translate(298,242)"/>
<path d="M0 0 C0.33 0.66 0.66 1.32 1 2 C0.67 2.99 0.34 3.98 0 5 C-0.09735192 7.57409939 -0.14114562 10.11418225 -0.125 12.6875 C-0.1237915 13.40921387 -0.12258301 14.13092773 -0.12133789 14.87451172 C-0.0947152 18.49929328 0.02429146 22.03927296 0.5625 25.625 C1.00481438 29.03713949 0.75156078 31.65972988 0 35 C-0.66 35 -1.32 35 -2 35 C-2.86349568 28.41584543 -3.1634305 21.8833883 -3.25 15.25 C-3.27126953 14.43426514 -3.29253906 13.61853027 -3.31445312 12.77807617 C-3.34330435 7.73993133 -2.70537991 4.41404091 0 0 Z " fill="#EAF1EF" transform="translate(718,131)"/>
<path d="M0 0 C0.33 0 0.66 0 1 0 C1.33 10.89 1.66 21.78 2 33 C1.01 33.495 1.01 33.495 0 34 C0 32.68 0 31.36 0 30 C-0.66 30 -1.32 30 -2 30 C-2 23.4 -2 16.8 -2 10 C-1.34 10 -0.68 10 0 10 C0 6.7 0 3.4 0 0 Z " fill="#F4F9F5" transform="translate(1219,234)"/>
<path d="M0 0 C0.66 0 1.32 0 2 0 C2 7.59 2 15.18 2 23 C1.01 22.01 0.02 21.02 -1 20 C-0.6875 17.3125 -0.6875 17.3125 0 15 C-0.33 15 -0.66 15 -1 15 C-1.33 16.98 -1.66 18.96 -2 21 C-2.99 21.33 -3.98 21.66 -5 22 C-5.25 19.25 -5.25 19.25 -5 16 C-4.3503125 15.401875 -3.700625 14.80375 -3.03125 14.1875 C-0.39282233 11.34611635 -0.41616402 9.57177256 -0.25 5.75 C-0.19328125 4.67234375 -0.1365625 3.5946875 -0.078125 2.484375 C-0.05234375 1.66453125 -0.0265625 0.8446875 0 0 Z " fill="#F6F8F4" transform="translate(1247,201)"/>
<path d="M0 0 C0.33 0 0.66 0 1 0 C2.61943049 7.59402841 3.32609514 15.1338657 3.75 22.875 C3.80663818 23.77822998 3.86327637 24.68145996 3.92163086 25.61206055 C4.15661656 30.54676033 3.98911155 34.36384001 2 39 C1.67 39 1.34 39 1 39 C0.67 26.13 0.34 13.26 0 0 Z " fill="#F3F7F5" transform="translate(962,148)"/>
<path d="M0 0 C2.01512227 4.21865028 2.41354068 8.20885432 2.625 12.8125 C2.66367187 13.50537109 2.70234375 14.19824219 2.7421875 14.91210938 C2.83573568 16.60767015 2.91892364 18.30379712 3 20 C2.34 20.33 1.68 20.66 1 21 C0.87882813 20.35933594 0.75765625 19.71867187 0.6328125 19.05859375 C-0.35679227 13.95071067 -1.48510951 8.97749731 -3 4 C-3.99 4.66 -4.98 5.32 -6 6 C-6.99 5.67 -7.98 5.34 -9 5 C-7.87926138 4.16094435 -6.75325453 3.32892169 -5.625 2.5 C-4.99851562 2.0359375 -4.37203125 1.571875 -3.7265625 1.09375 C-2 0 -2 0 0 0 Z " fill="#F2F6F3" transform="translate(874,172)"/>
<path d="M0 0 C1.98 0 3.96 0 6 0 C0.79635843 6.24436989 -7.41207977 6.56486016 -15 8 C-15 7.01 -15 6.02 -15 5 C-14.01 4.67 -13.02 4.34 -12 4 C-12 3.34 -12 2.68 -12 2 C-4.57142857 1.85714286 -4.57142857 1.85714286 -1 3 C-0.67 2.01 -0.34 1.02 0 0 Z " fill="#EBEDEE" transform="translate(126,170)"/>
<path d="M0 0 C0 5.94 0 11.88 0 18 C-2.26954631 14.59568053 -2.36549949 12.83475798 -2.625 8.8125 C-2.69976563 7.72582031 -2.77453125 6.63914063 -2.8515625 5.51953125 C-2.90054687 4.68808594 -2.94953125 3.85664063 -3 3 C-4.0725 3.66 -5.145 4.32 -6.25 5 C-9.30980686 6.88295807 -10.1335864 7 -14 7 C-14 6.34 -14 5.68 -14 5 C-12.421924 4.15675328 -10.8372958 3.32576082 -9.25 2.5 C-8.36828125 2.0359375 -7.4865625 1.571875 -6.578125 1.09375 C-4 0 -4 0 0 0 Z " fill="#ECF1F0" transform="translate(1219,171)"/>
<path d="M0 0 C0 3 0 3 -1 6.75 C-2.68218355 13.32253143 -2.07296416 18.65154726 0 25 C-1.875 24.4375 -1.875 24.4375 -4 23 C-6.7177572 16.39973251 -5.85044539 11.17366003 -3.5625 4.625 C-2 1 -2 1 0 0 Z " fill="#F3F7F6" transform="translate(137,284)"/>
<path d="M0 0 C0 0.99 0 1.98 0 3 C-1.65191491 4.35156675 -3.32294092 5.679762 -5 7 C-9.50357522 11.63404169 -9.50357522 11.63404169 -13 17 C-13.66 17 -14.32 17 -15 17 C-15.33 17.99 -15.66 18.98 -16 20 C-16.64697266 18.19555664 -16.64697266 18.19555664 -17 16 C-15.19842644 13.60288967 -13.45183289 11.56949127 -11.375 9.4375 C-10.84003906 8.86064453 -10.30507813 8.28378906 -9.75390625 7.68945312 C-6.74978602 4.52087376 -3.91238104 2.04345552 0 0 Z " fill="#F5F8F8" transform="translate(598,79)"/>
<path d="M0 0 C1.71980386 3.03247047 2.36548058 5.53697144 2.6875 9 C2.77386719 9.845625 2.86023438 10.69125 2.94921875 11.5625 C2.99852254 13.92908198 2.69301659 15.74899875 2 18 C2.66 18 3.32 18 4 18 C4 20.31 4 22.62 4 25 C3.34 25 2.68 25 2 25 C1.49061655 22.50159546 0.99236886 20.00176612 0.5 17.5 C0.35691406 16.80390625 0.21382812 16.1078125 0.06640625 15.390625 C-0.8825873 10.51008677 -1.22010758 5.97443135 -1 1 C-0.67 0.67 -0.34 0.34 0 0 Z " fill="#F2F8F6" transform="translate(718,165)"/>
<path d="M0 0 C0.33 0 0.66 0 1 0 C2.34082826 7.44904591 1.64622005 14.4945045 1 22 C0.80348794 24.62442821 0.6208532 27.24959483 0.4375 29.875 C0.29166667 31.91666667 0.14583333 33.95833333 0 36 C-0.33 36 -0.66 36 -1 36 C-2.2133073 27.05185864 -2.94278482 17.87924617 -1 9 C-0.79371915 7.39814009 -0.60532699 5.793844 -0.4375 4.1875 C-0.35371094 3.39730469 -0.26992188 2.60710937 -0.18359375 1.79296875 C-0.12300781 1.20128906 -0.06242188 0.60960937 0 0 Z " fill="#F0F4F0" transform="translate(903,144)"/>
<path d="M0 0 C-1.65 1.32 -3.3 2.64 -5 4 C-4.34 4.66 -3.68 5.32 -3 6 C-6.63 7.32 -10.26 8.64 -14 10 C-14.33 9.34 -14.66 8.68 -15 8 C-11.65822921 2.98734382 -6.23977408 -2.07992469 0 0 Z " fill="#F0F6F7" transform="translate(111,123)"/>
<path d="M0 0 C0.66 0 1.32 0 2 0 C2 1.32 2 2.64 2 4 C2.66 4 3.32 4 4 4 C4.84191782 6.9248633 5.11819313 9.50741656 5.09765625 12.546875 C5.09282227 13.81337891 5.09282227 13.81337891 5.08789062 15.10546875 C5.07951172 15.97816406 5.07113281 16.85085937 5.0625 17.75 C5.05798828 18.63816406 5.05347656 19.52632812 5.04882812 20.44140625 C5.037074 22.62767329 5.02064249 24.81380179 5 27 C4.67 27 4.34 27 4 27 C3.89042969 25.75863281 3.78085937 24.51726562 3.66796875 23.23828125 C3.50846113 21.59629103 3.3482688 19.95436722 3.1875 18.3125 C3.11724609 17.49587891 3.04699219 16.67925781 2.97460938 15.83789062 C2.49441404 11.09356074 1.72433249 8.02305537 -1 4 C-1 1 -1 1 0 0 Z " fill="#EBF0EF" transform="translate(443,169)"/>
<path d="M0 0 C0.33 0 0.66 0 1 0 C1.18451025 15.74487472 1.18451025 15.74487472 0 23 C-0.66 23 -1.32 23 -2 23 C-3.0918604 18.87861144 -2.83871845 15.68454102 -2.125 11.5 C-1.94195312 10.3965625 -1.75890625 9.293125 -1.5703125 8.15625 C-1.07772467 5.43014746 -0.55689633 2.71360391 0 0 Z " fill="#F2F7F4" transform="translate(513,117)"/>
<path d="M0 0 C0.33 0 0.66 0 1 0 C1.97814133 6.83194101 2.03808768 13.50125108 1.6875 20.375 C1.65277588 21.14763184 1.61805176 21.92026367 1.58227539 22.71630859 C1.33669664 26.85915446 0.8503531 30.20866425 -1 34 C-1.66 34 -2.32 34 -3 34 C-2.125 26.125 -2.125 26.125 -1 25 C-0.84213692 23.14825294 -0.74892644 21.2909089 -0.68359375 19.43359375 C-0.62075195 17.7465332 -0.62075195 17.7465332 -0.55664062 16.02539062 C-0.51732422 14.84138672 -0.47800781 13.65738281 -0.4375 12.4375 C-0.39431641 11.24962891 -0.35113281 10.06175781 -0.30664062 8.83789062 C-0.20016454 5.89205216 -0.09815159 2.9461257 0 0 Z " fill="#FDFDFC" transform="translate(1066,200)"/>
<path d="M0 0 C0.99 0.33 1.98 0.66 3 1 C3.8125 4.25 3.8125 4.25 4 8 C1.5625 10.4375 1.5625 10.4375 -1 12 C-2.09658936 8.71023192 -1.79953138 7.28696233 -1 4 C-1.66 4 -2.32 4 -3 4 C-2.67 3.01 -2.34 2.02 -2 1 C-1.34 0.67 -0.68 0.34 0 0 Z " fill="#EFF0EC" transform="translate(267,151)"/>
<path d="M0 0 C1.2065625 0.0309375 1.2065625 0.0309375 2.4375 0.0625 C1.9734375 0.4234375 1.509375 0.784375 1.03125 1.15625 C-1.1722016 3.79175093 -1.42777713 6.20753624 -2.0625 9.5625 C-2.87296341 13.84637803 -3.33926477 16.14375393 -6.5625 19.0625 C-6.08820278 16.08248162 -5.60831304 13.10355713 -5.125 10.125 C-4.99029297 9.27486328 -4.85558594 8.42472656 -4.71679688 7.54882812 C-4.58466797 6.73994141 -4.45253906 5.93105469 -4.31640625 5.09765625 C-4.19595947 4.3487915 -4.0755127 3.59992676 -3.95141602 2.82836914 C-3.32868182 0.00085096 -2.96866241 0.0724064 0 0 Z " fill="#F1F6F6" transform="translate(291.5625,81.9375)"/>
<path d="M0 0 C0.33 0 0.66 0 1 0 C1.05379226 2.95857409 1.09357093 5.91617721 1.125 8.875 C1.14175781 9.71675781 1.15851562 10.55851562 1.17578125 11.42578125 C1.18222656 12.23144531 1.18867187 13.03710938 1.1953125 13.8671875 C1.20578613 14.61081543 1.21625977 15.35444336 1.22705078 16.12060547 C1 18 1 18 -1 20 C-4.09200602 13.00230217 -1.99604349 7.13639206 0 0 Z " fill="#EFF6F5" transform="translate(638,277)"/>
<path d="M0 0 C2.0625 0.4375 2.0625 0.4375 4 1 C5.33333333 5.66666667 6.66666667 10.33333333 8 15 C7.34 15.66 6.68 16.32 6 17 C4.64560332 14.29120665 4.93498549 11.99066732 5 9 C4.38125 8.79375 3.7625 8.5875 3.125 8.375 C0.15346355 6.45224112 -0.13024659 4.33405473 -1 1 C-0.67 0.67 -0.34 0.34 0 0 Z " fill="#F1F7F4" transform="translate(404,174)"/>
<path d="M0 0 C0.33 0.66 0.66 1.32 1 2 C-1.66666667 6 -4.33333333 10 -7 14 C-6.34 14 -5.68 14 -5 14 C-5 14.66 -5 15.32 -5 16 C-6.65 15.67 -8.3 15.34 -10 15 C-8.68552225 11.43574301 -7.11594205 8.40275366 -5 5.25 C-4.2265625 4.08210937 -4.2265625 4.08210937 -3.4375 2.890625 C-2 1 -2 1 0 0 Z " fill="#EFF7F5" transform="translate(1109,202)"/>
<path d="M0 0 C0.99 0.33 1.98 0.66 3 1 C3.33 1.99 3.66 2.98 4 4 C4.66 4.33 5.32 4.66 6 5 C6 5.99 6 6.98 6 8 C7.65 8.33 9.3 8.66 11 9 C11 9.66 11 10.32 11 11 C11.99 11.33 12.98 11.66 14 12 C11.65038511 12.83656618 10.50365411 13.2274567 8.18359375 12.1796875 C4.58148898 9.48818192 1.88425767 7.21187008 0 3 C0 2.01 0 1.02 0 0 Z " fill="#F4F8F7" transform="translate(1164,165)"/>
<path d="M0 0 C0.33 0 0.66 0 1 0 C1.05786668 3.79160297 1.09355054 7.58309311 1.125 11.375 C1.14175781 12.45523438 1.15851562 13.53546875 1.17578125 14.6484375 C1.18222656 15.6796875 1.18867187 16.7109375 1.1953125 17.7734375 C1.20578613 18.72653809 1.21625977 19.67963867 1.22705078 20.66162109 C1 23 1 23 -1 25 C-1.16920005 22.62515638 -1.33542863 20.25016522 -1.5 17.875 C-1.54769531 17.20984375 -1.59539063 16.5446875 -1.64453125 15.859375 C-2.45872381 3.9954262 -2.45872381 3.9954262 0 0 Z " fill="#EDF7F2" transform="translate(874,225)"/>
<path d="M0 0 C1 3 1 3 -0.0625 5.75 C-2.33566439 9.56304994 -5.01335133 12.73305097 -8 16 C-9 13 -9 13 -7.890625 10.625 C-7.34921875 9.75875 -6.8078125 8.8925 -6.25 8 C-5.71890625 7.13375 -5.1878125 6.2675 -4.640625 5.375 C-3.22329181 3.32324147 -1.8317222 1.67723961 0 0 Z " fill="#F3F7F6" transform="translate(274,119)"/>
<path d="M0 0 C3.96 0 7.92 0 12 0 C12 0.66 12 1.32 12 2 C7.50343896 4.24828052 3.92127034 4.16682272 -1 4 C-0.67 2.68 -0.34 1.36 0 0 Z " fill="#EFF6F3" transform="translate(621,172)"/>
<path d="M0 0 C-0.33 0.99 -0.66 1.98 -1 3 C-6.3769322 5.20018889 -12.28454981 5.20783455 -18 5 C-17 3 -17 3 -14.70703125 2.1484375 C-5.11467169 -0.41470311 -5.11467169 -0.41470311 0 0 Z " fill="#F2F6F7" transform="translate(482,119)"/>
<path d="M0 0 C-1 3 -1 3 -2.96875 4.16796875 C-8.96110734 6.58155712 -13.54559267 7.41641338 -20 7 C-20 6.67 -20 6.34 -20 6 C-18.5459375 5.5978125 -18.5459375 5.5978125 -17.0625 5.1875 C-11.83085873 3.69274535 -5.30294611 0 0 0 Z " fill="#EEF4F4" transform="translate(151,264)"/>
<path d="M0 0 C0.66 0 1.32 0 2 0 C1.40112592 3.35369486 0.27617653 5.46118772 -2 8 C-2.99 8.33 -3.98 8.66 -5 9 C-6.20882096 11.00016466 -6.20882096 11.00016466 -7 13 C-8.65 13 -10.3 13 -12 13 C-10.1875 10 -10.1875 10 -8 7 C-7.01 7 -6.02 7 -5 7 C-5 6.34 -5 5.68 -5 5 C-4.360625 4.731875 -3.72125 4.46375 -3.0625 4.1875 C-0.66868314 3.11332248 -0.66868314 3.11332248 0 0 Z " fill="#F1F0ED" transform="translate(260,157)"/>
<path d="M0 0 C-0.33 0.66 -0.66 1.32 -1 2 C-1.99 2.33 -2.98 2.66 -4 3 C-5.23950042 5.09138456 -5.23950042 5.09138456 -6.1875 7.5625 C-6.53167969 8.38878906 -6.87585938 9.21507812 -7.23046875 10.06640625 C-7.48441406 10.70449219 -7.73835938 11.34257812 -8 12 C-8.92389881 8.55773184 -9.31142059 5.58133677 -9 2 C-5.5647952 -0.29013653 -4.014669 -0.17842973 0 0 Z " fill="#F2F6F6" transform="translate(85,120)"/>
<path d="M0 0 C0.33 0.66 0.66 1.32 1 2 C1.66 2.33 2.32 2.66 3 3 C-0.59462331 5.25998595 -3.56595675 5.20868087 -7.75 5.125 C-8.92046875 5.10695312 -10.0909375 5.08890625 -11.296875 5.0703125 C-12.63492187 5.03550781 -12.63492187 5.03550781 -14 5 C-14 4.34 -14 3.68 -14 3 C-10.7 3 -7.4 3 -4 3 C-4 2.34 -4 1.68 -4 1 C-2.68 0.67 -1.36 0.34 0 0 Z " fill="#EAF1EF" transform="translate(1106,229)"/>
<path d="M0 0 C1.875 0.3125 1.875 0.3125 4 1 C4.66 1.99 5.32 2.98 6 4 C7.65261839 5.02304948 9.31791365 6.02616054 11 7 C11 7.33 11 7.66 11 8 C9.35 8 7.7 8 6 8 C5.34 6.68 4.68 5.36 4 4 C1.69 4.33 -0.62 4.66 -3 5 C-2.67 4.34 -2.34 3.68 -2 3 C-1.34 3 -0.68 3 0 3 C0 2.01 0 1.02 0 0 Z " fill="#ECF1F0" transform="translate(748,215)"/>
<path d="M0 0 C0.99 0.33 1.98 0.66 3 1 C1.78036258 5.47200388 0.43054688 7.90144153 -3 11 C-3.33 11.66 -3.66 12.32 -4 13 C-4.66 13 -5.32 13 -6 13 C-3.10933941 3.40546697 -3.10933941 3.40546697 0 0 Z " fill="#EDF6F5" transform="translate(87,177)"/>
<path d="M0 0 C-1.25190626 4.48599743 -2.79385533 7.59347128 -6 11 C-6.66 11 -7.32 11 -8 11 C-7.55123384 9.35153231 -7.09069512 7.70626545 -6.625 6.0625 C-6.36976563 5.14597656 -6.11453125 4.22945312 -5.8515625 3.28515625 C-4.5855818 -0.11208553 -3.55572122 0 0 0 Z " fill="#F1F3F3" transform="translate(803,178)"/>
<path d="M0 0 C0.66 0.33 1.32 0.66 2 1 C1.125 4.875 1.125 4.875 0 6 C-2.33297433 6.04092937 -4.66705225 6.04241723 -7 6 C-7.33 5.01 -7.66 4.02 -8 3 C-7.236875 2.87625 -6.47375 2.7525 -5.6875 2.625 C-2.79732864 2.11897208 -2.79732864 2.11897208 0 0 Z " fill="#F2F5F1" transform="translate(848,231)"/>
<path d="M0 0 C0.66 0 1.32 0 2 0 C2.8638129 1.45264038 3.71580454 2.9123163 4.5625 4.375 C5.27599609 5.59316406 5.27599609 5.59316406 6.00390625 6.8359375 C6.33261719 7.55007812 6.66132812 8.26421875 7 9 C6.67 9.66 6.34 10.32 6 11 C2.125 7.25 2.125 7.25 1 5 C0.01 5.495 0.01 5.495 -1 6 C-1.66 5.34 -2.32 4.68 -3 4 C-1.625 2 -1.625 2 0 0 Z " fill="#F1F7F4" transform="translate(1142,194)"/>
<path d="M0 0 C0 1.98 0 3.96 0 6 C-0.99 6.495 -0.99 6.495 -2 7 C-3.56000934 10.36857717 -3.56000934 10.36857717 -4 14 C-4.66 14 -5.32 14 -6 14 C-6.23715129 8.90124724 -5.84760978 5.14322735 -2.4375 1.1875 C-1 0 -1 0 0 0 Z " fill="#F2F6F4" transform="translate(1131,155)"/>
<path d="M0 0 C2.63822024 3.10378852 3.70365731 5.81462924 4.6875 9.75 C4.93886719 10.73484375 5.19023438 11.7196875 5.44921875 12.734375 C5.72185547 13.85585937 5.72185547 13.85585937 6 15 C4.68 14.67 3.36 14.34 2 14 C1.663389 12.22978678 1.33082707 10.45880326 1 8.6875 C0.814375 7.70136719 0.62875 6.71523437 0.4375 5.69921875 C0 3 0 3 0 0 Z " fill="#EFF5F3" transform="translate(826,220)"/>
<path d="M0 0 C0.33 0.99 0.66 1.98 1 3 C-3.22949995 5.41685712 -6.12335991 6.34833144 -11 6 C-11 5.34 -11 4.68 -11 4 C-7.37 2.68 -3.74 1.36 0 0 Z " fill="#ECF4F1" transform="translate(160,217)"/>
<path d="M0 0 C0.66 0.33 1.32 0.66 2 1 C0.72278474 5.99275057 -1.17330957 8.57611908 -5 12 C-4.52389341 7.00088076 -2.96837781 4.02167317 0 0 Z " fill="#F4F7F7" transform="translate(281,105)"/>
<path d="M0 0 C3.67655322 1.47062129 5.6513818 2.47707269 7.875 5.8125 C9.03883662 9.1100371 9.24764915 11.53291185 9 15 C7 12 7 12 5.625 9 C3.98656045 5.97518853 2.70668087 4.96001028 0 3 C0 2.01 0 1.02 0 0 Z " fill="#F3F8F7" transform="translate(306,87)"/>
<path d="M0 0 C0.33 0.99 0.66 1.98 1 3 C1.70125 2.67 2.4025 2.34 3.125 2 C6.26003116 0.90955438 8.70563182 0.84677357 12 1 C10 4 10 4 7.6875 4.546875 C6.800625 4.61390625 5.91375 4.6809375 5 4.75 C4.113125 4.82734375 3.22625 4.9046875 2.3125 4.984375 C0 5 0 5 -2 4 C-2 3.34 -2 2.68 -2 2 C-1.34 2 -0.68 2 0 2 C0 1.34 0 0.68 0 0 Z " fill="#E8F1ED" transform="translate(431,224)"/>
<path d="M0 0 C0.66 0 1.32 0 2 0 C2.28875 1.134375 2.5775 2.26875 2.875 3.4375 C3.24625 4.613125 3.6175 5.78875 4 7 C4.66 7.33 5.32 7.66 6 8 C6 8.99 6 9.98 6 11 C6.66 11 7.32 11 8 11 C7.67 11.66 7.34 12.32 7 13 C3.90462649 11.93262982 3.01544003 11.02481433 1.25 8.1875 C0.05271022 5.13441107 -0.28472808 3.22691821 0 0 Z " fill="#F3F8F7" transform="translate(31,102)"/>
<path d="M0 0 C0.6875 1.8125 0.6875 1.8125 1 4 C-0.0625 5.6875 -0.0625 5.6875 -2 7 C-5.1875 7.6875 -5.1875 7.6875 -8 8 C-7.1875 6.0625 -7.1875 6.0625 -6 4 C-5.01 3.67 -4.02 3.34 -3 3 C-2.67 2.34 -2.34 1.68 -2 1 C-1.34 0.67 -0.68 0.34 0 0 Z " fill="#F2F2EF" transform="translate(1237,260)"/>
<path d="M0 0 C3.81049403 0.54435629 5.63979378 1.98870241 8 5 C8.75 8.25 8.75 8.25 9 11 C5.78910008 7.78910008 2.77528501 4.60787052 0 1 C0 0.67 0 0.34 0 0 Z " fill="#EFF8F6" transform="translate(1056,94)"/>
<path d="M0 0 C0.66 0 1.32 0 2 0 C2.45572917 1.98567708 2.91145833 3.97135417 3.3671875 5.95703125 C3.98007723 8.27742974 3.98007723 8.27742974 6 11 C5.625 13.1875 5.625 13.1875 5 15 C1.10640794 10.10160999 0.2757735 6.2049038 0 0 Z " fill="#EAF0EE" transform="translate(1213,86)"/>
<path d="M0 0 C0.66 0.66 1.32 1.32 2 2 C1.34 2 0.68 2 0 2 C0.165 3.093125 0.33 4.18625 0.5 5.3125 C1.33802817 11.49295775 1.33802817 11.49295775 -1 15 C-3.1519437 11.77208445 -3.20086443 10.71599191 -3 7 C-2.34 7 -1.68 7 -1 7 C-1.020625 6.030625 -1.04125 5.06125 -1.0625 4.0625 C-1 1 -1 1 0 0 Z " fill="#E8E8E5" transform="translate(1246,215)"/>
<path d="M0 0 C2.67901932 2.31881505 3.66204403 4.31814468 4.6875 7.6875 C4.93886719 8.49574219 5.19023438 9.30398437 5.44921875 10.13671875 C5.63097656 10.75160156 5.81273437 11.36648437 6 12 C2.83884224 10.63016497 2.0072908 10.0109362 0 7 C-0.07905064 4.66800612 -0.08798769 2.33167378 0 0 Z " fill="#EDF5F3" transform="translate(725,205)"/>
<path d="M0 0 C2.28062828 3.42094242 2.21925007 4.68187222 2.125 8.6875 C2.10695313 9.68136719 2.08890625 10.67523438 2.0703125 11.69921875 C2.03550781 12.83810547 2.03550781 12.83810547 2 14 C1.01 13.67 0.02 13.34 -1 13 C-0.67 8.71 -0.34 4.42 0 0 Z " fill="#ECF4F0" transform="translate(932,178)"/>
<path d="M0 0 C0.66 0.99 1.32 1.98 2 3 C1.67 3.66 1.34 4.32 1 5 C0.01 4.67 -0.98 4.34 -2 4 C-5.08333333 5.33333333 -5.08333333 5.33333333 -8 7 C-8.99 7.495 -8.99 7.495 -10 8 C-8.71107323 5.12470182 -7.50703617 2.94991702 -5 1 C-2.3125 0.3125 -2.3125 0.3125 0 0 Z " fill="#EDF4F1" transform="translate(621,92)"/>
<path d="M0 0 C-1 2 -1 2 -2.92578125 2.66796875 C-3.71339844 2.83941406 -4.50101563 3.01085937 -5.3125 3.1875 C-6.09238281 3.36667969 -6.87226563 3.54585938 -7.67578125 3.73046875 C-10.09204759 4.01067443 -11.70242952 3.74132137 -14 3 C-8.85974186 -0.28405381 -5.99541813 -1.49885453 0 0 Z " fill="#EDF6F3" transform="translate(195,301)"/>
<path d="M0 0 C3.96 0 7.92 0 12 0 C10.02 0.99 10.02 0.99 8 2 C7.360625 2.37125 6.72125 2.7425 6.0625 3.125 C3.58890178 4.17440531 1.66046462 4.14780359 -1 4 C-0.67 2.68 -0.34 1.36 0 0 Z " fill="#F1F7F4" transform="translate(790,213)"/>
<path d="M0 0 C0.33 0 0.66 0 1 0 C1.19448477 2.12437212 1.38038289 4.24953191 1.5625 6.375 C1.66691406 7.55835938 1.77132812 8.74171875 1.87890625 9.9609375 C2 13 2 13 1 15 C-0.32 14.67 -1.64 14.34 -3 14 C-2.34 14 -1.68 14 -1 14 C-0.67 9.38 -0.34 4.76 0 0 Z " fill="#EAF2F0" transform="translate(83,165)"/>
<path d="M0 0 C0 0.66 0 1.32 0 2 C-4.36200187 4.44697666 -8.02693484 5.50269348 -13 6 C-12.67 5.01 -12.34 4.02 -12 3 C-9.78515625 2.05078125 -9.78515625 2.05078125 -7.0625 1.3125 C-6.16660156 1.06113281 -5.27070312 0.80976563 -4.34765625 0.55078125 C-2 0 -2 0 0 0 Z " fill="#E8EEED" transform="translate(777,151)"/>
<path d="M0 0 C0.33 0.99 0.66 1.98 1 3 C0.67 3.66 0.34 4.32 0 5 C-0.66 5 -1.32 5 -2 5 C-2.99 8.465 -2.99 8.465 -4 12 C-4.33 12 -4.66 12 -5 12 C-5.3125 8.8125 -5.3125 8.8125 -5 5 C-2.5 2.0625 -2.5 2.0625 0 0 Z " fill="#ECF3F0" transform="translate(578,103)"/>
<path d="M0 0 C3 1 3 1 4.25 2.5625 C6.97876849 4.8039884 9.60213991 4.1923317 13 4 C11 5 9 6 7 7 C3.16917814 5.40382422 1.33343353 4.50015029 -1 1 C-0.67 0.67 -0.34 0.34 0 0 Z " fill="#F1F7F7" transform="translate(584,217)"/>
<path d="M0 0 C1.32 0.66 2.64 1.32 4 2 C-0.15217057 3.58177926 -3.54736965 4.40478458 -8 4 C-8.66 3.34 -9.32 2.68 -10 2 C-9.04287109 1.90912109 -9.04287109 1.90912109 -8.06640625 1.81640625 C-6.82697266 1.69072266 -6.82697266 1.69072266 -5.5625 1.5625 C-4.73878906 1.48128906 -3.91507813 1.40007812 -3.06640625 1.31640625 C-1.01337975 1.21069185 -1.01337975 1.21069185 0 0 Z " fill="#F1F6F4" transform="translate(1123,148)"/>
<path d="M0 0 C0.33 0.66 0.66 1.32 1 2 C1.66 2 2.32 2 3 2 C4.06775224 3.96466413 5.06553465 5.96855359 6 8 C5.67 8.66 5.34 9.32 5 10 C2 9 2 9 0.8125 7.25 C-0.10819096 4.70039426 -0.14948718 2.69076919 0 0 Z " fill="#EFF3F4" transform="translate(573,124)"/>
<path d="M0 0 C1 3 1 3 0.375 5.625 C-1 8 -1 8 -3.625 8.8125 C-4.800625 8.9053125 -4.800625 8.9053125 -6 9 C-6 8.34 -6 7.68 -6 7 C-5.34 7 -4.68 7 -4 7 C-3.71125 6.401875 -3.4225 5.80375 -3.125 5.1875 C-2 3 -2 3 0 0 Z " fill="#F5F6F7" transform="translate(646,123)"/>
<path d="M0 0 C-1 1.5625 -1 1.5625 -3 3 C-5.76614782 2.96726452 -8.26030547 2.49404328 -11 2 C-7.72338241 -1.27661759 -4.29690696 -1.43230232 0 0 Z " fill="#F0F4F2" transform="translate(661,294)"/>
<path d="M0 0 C0.66 0 1.32 0 2 0 C1.50168276 3.68754757 0.89932357 5.60490662 -2 8 C-2.99 6.02 -3.98 4.04 -5 2 C-4.01 2 -3.02 2 -2 2 C-1.34 1.34 -0.68 0.68 0 0 Z " fill="#F3F6F4" transform="translate(1131,210)"/>
<path d="M0 0 C1.32 0.66 2.64 1.32 4 2 C3.6875 3.9375 3.6875 3.9375 3 6 C2.01 6.33 1.02 6.66 0 7 C0 6.01 0 5.02 0 4 C-0.66 3.67 -1.32 3.34 -2 3 C-1.34 2.01 -0.68 1.02 0 0 Z " fill="#EAEFEC" transform="translate(1136,199)"/>
<path d="M0 0 C-0.66 1.32 -1.32 2.64 -2 4 C-4.92879371 3.37240135 -7.36095629 2.41377341 -10 1 C-3.71428571 -1.42857143 -3.71428571 -1.42857143 0 0 Z " fill="#E9F4F2" transform="translate(586,183)"/>
<path d="M0 0 C1.32 0 2.64 0 4 0 C3.67 1.32 3.34 2.64 3 4 C0.69 4.33 -1.62 4.66 -4 5 C-4 4.01 -4 3.02 -4 2 C-2.68 2 -1.36 2 0 2 C0 1.34 0 0.68 0 0 Z " fill="#EAECEB" transform="translate(1048,261)"/>
<path d="M0 0 C0.66 0.33 1.32 0.66 2 1 C0.73882275 4.88862987 -0.45264167 6.89375599 -4 9 C-4.66 9 -5.32 9 -6 9 C-6 8.01 -6 7.02 -6 6 C-5.38125 5.938125 -4.7625 5.87625 -4.125 5.8125 C-1.72238859 5.171081 -1.72238859 5.171081 -0.75 2.4375 C-0.5025 1.633125 -0.255 0.82875 0 0 Z " fill="#F1F5F4" transform="translate(188,225)"/>
<path d="M0 0 C3.46612104 1.54049824 6.30927882 3.30927882 9 6 C9.3125 9.25 9.3125 9.25 9 12 C8.34 12 7.68 12 7 12 C6.6596875 10.700625 6.6596875 10.700625 6.3125 9.375 C4.75974905 5.38221186 2.85680105 3.15751695 0 0 Z " fill="#EFF8F7" transform="translate(898,94)"/>
<path d="M0 0 C-0.99 0.495 -0.99 0.495 -2 1 C-2.33 1.66 -2.66 2.32 -3 3 C-4.98 3 -6.96 3 -9 3 C-9 2.34 -9 1.68 -9 1 C-5.57367167 -0.61798838 -3.61944899 -1.34053666 0 0 Z " fill="#F0F5F6" transform="translate(980,214)"/>
<path d="M0 0 C0.33 0 0.66 0 1 0 C1.33 5.61 1.66 11.22 2 17 C-1 14 -1 14 -1.07421875 10.64453125 C-0.94660156 9.37996094 -0.81898438 8.11539063 -0.6875 6.8125 C-0.56761719 5.54019531 -0.44773437 4.26789063 -0.32421875 2.95703125 C-0.21722656 1.98121094 -0.11023438 1.00539062 0 0 Z " fill="#F4F8F7" transform="translate(446,186)"/>
<path d="M0 0 C3.875 1.75 3.875 1.75 5 4 C7.02463255 4.65213292 7.02463255 4.65213292 9 5 C9 5.66 9 6.32 9 7 C2.25 5.25 2.25 5.25 0 3 C0 2.01 0 1.02 0 0 Z " fill="#EBF5F2" transform="translate(60,173)"/>
<path d="M0 0 C-5.10334017 1.905247 -9.46342706 3.42589023 -15 3 C-13.63969519 1.04456184 -12.47999734 0.11923501 -10.16015625 -0.45703125 C-6.458211 -0.97406271 -3.61959965 -1.06887506 0 0 Z " fill="#F1F7F6" transform="translate(117,112)"/>
<path d="M0 0 C0 1.32 0 2.64 0 4 C-2.31 4 -4.62 4 -7 4 C-6.67 3.01 -6.34 2.02 -6 1 C-3 0 -3 0 0 0 Z " fill="#E5EEED" transform="translate(643,231)"/>
<path d="M0 0 C1.32 0 2.64 0 4 0 C4 1.98 4 3.96 4 6 C2.68 6.33 1.36 6.66 0 7 C0.33 6.01 0.66 5.02 1 4 C0.61067144 1.85744207 0.61067144 1.85744207 0 0 Z " fill="#F3F5F3" transform="translate(1064,194)"/>
<path d="M0 0 C3.3 0 6.6 0 10 0 C10 0.66 10 1.32 10 2 C6.7 2.33 3.4 2.66 0 3 C0 2.01 0 1.02 0 0 Z " fill="#EFF6F2" transform="translate(487,188)"/>
<path d="M0 0 C0.33 1.32 0.66 2.64 1 4 C-1.91482778 4.80967438 -3.46113217 5.21845993 -6.3125 4.0625 C-6.869375 3.711875 -7.42625 3.36125 -8 3 C-2.25 0 -2.25 0 0 0 Z " fill="#F1F8F7" transform="translate(82,177)"/>
<path d="M0 0 C0.99 0.33 1.98 0.66 3 1 C3.33 3.31 3.66 5.62 4 8 C3.01 8 2.02 8 1 8 C0.67 5.36 0.34 2.72 0 0 Z " fill="#F6F4F2" transform="translate(267,151)"/>
<path d="M0 0 C0.33 0.99 0.66 1.98 1 3 C1.66 3 2.32 3 3 3 C2.67 4.98 2.34 6.96 2 9 C1.01 9.33 0.02 9.66 -1 10 C-0.67 6.7 -0.34 3.4 0 0 Z " fill="#F4F8F7" transform="translate(676,228)"/>
<path d="M0 0 C0.33 0 0.66 0 1 0 C1.21278058 4.46839215 0.59138085 7.82262526 -1 12 C-1.33 12 -1.66 12 -2 12 C-2.28571429 3.42857143 -2.28571429 3.42857143 0 0 Z " fill="#EDF3F1" transform="translate(901,221)"/>
<path d="M0 0 C0.99 0.33 1.98 0.66 3 1 C3.33 1.99 3.66 2.98 4 4 C4.66 4.33 5.32 4.66 6 5 C5.67 5.99 5.34 6.98 5 8 C2.5 5.6875 2.5 5.6875 0 3 C0 2.01 0 1.02 0 0 Z " fill="#EAF2F0" transform="translate(1164,165)"/>
<path d="M0 0 C0.66 0.33 1.32 0.66 2 1 C1 4 1 4 -1.375 5.75 C-4 7 -4 7 -7 6 C-6.34 5.67 -5.68 5.34 -5 5 C-4.67 4.01 -4.34 3.02 -4 2 C-2.0625 0.75 -2.0625 0.75 0 0 Z " fill="#F5F7F5" transform="translate(1214,142)"/>
<path d="M0 0 C0.721875 0.495 1.44375 0.99 2.1875 1.5 C5.14848659 3.07919285 6.71253029 3.28178312 10 3 C9.01 4.485 9.01 4.485 8 6 C5.23723823 5.47731534 2.6739124 4.89130413 0 4 C0 2.68 0 1.36 0 0 Z " fill="#EEF5F3" transform="translate(738,140)"/>
<path d="M0 0 C1.32 0 2.64 0 4 0 C4.33 1.98 4.66 3.96 5 6 C3.68 5.67 2.36 5.34 1 5 C0.67 3.35 0.34 1.7 0 0 Z " fill="#F0F9F5" transform="translate(164,69)"/>
<path d="M0 0 C0.33 0.99 0.66 1.98 1 3 C-1.57784846 5.64752004 -3.91648098 7.94432065 -7 10 C-5.33248852 6.05860922 -2.77289351 3.2107188 0 0 Z " fill="#F3F7F4" transform="translate(165,271)"/>
<path d="M0 0 C0 3 0 3 -1.3125 4.38671875 C-2.875 5.59114583 -4.4375 6.79557292 -6 8 C-6.33 7.01 -6.66 6.02 -7 5 C-4.69 3.35 -2.38 1.7 0 0 Z " fill="#EBF6F3" transform="translate(598,79)"/>
<path d="M0 0 C1.32 0.33 2.64 0.66 4 1 C4 1.99 4 2.98 4 4 C3.34 4 2.68 4 2 4 C2 4.66 2 5.32 2 6 C1.34 6 0.68 6 0 6 C0 4.02 0 2.04 0 0 Z " fill="#E9EEEB" transform="translate(321,274)"/>
<path d="M0 0 C0.66 0 1.32 0 2 0 C4.125 4.625 4.125 4.625 3 8 C1.5 6.8125 1.5 6.8125 0 5 C-0.1875 2.3125 -0.1875 2.3125 0 0 Z " fill="#F1F8F6" transform="translate(120,259)"/>
<path d="M0 0 C0 0.66 0 1.32 0 2 C-3.21451269 3.60725635 -6.43612536 3.05748185 -10 3 C-7.02931146 0.02931146 -4.09966187 0 0 0 Z " fill="#E3EFEB" transform="translate(630,173)"/>
<path d="M0 0 C0.33 0.99 0.66 1.98 1 3 C-1.17424117 5.50037734 -2.73045798 6.43628586 -6 7 C-4.60667426 3.63279613 -3.0210714 2.0140476 0 0 Z " fill="#EDEBEA" transform="translate(278,143)"/>
<path d="M0 0 C0.66 0.33 1.32 0.66 2 1 C1.67 2.65 1.34 4.3 1 6 C0.01 5.67 -0.98 5.34 -2 5 C-2 3.68 -2 2.36 -2 1 C-1.34 0.67 -0.68 0.34 0 0 Z " fill="#EFECEE" transform="translate(875,122)"/>
<path d="M0 0 C0.66 0.33 1.32 0.66 2 1 C2 2.65 2 4.3 2 6 C1.01 6.33 0.02 6.66 -1 7 C-1.66 6.01 -2.32 5.02 -3 4 C-2.01 2.68 -1.02 1.36 0 0 Z " fill="#EEF4F2" transform="translate(408,113)"/>
<path d="M0 0 C1.98 0.495 1.98 0.495 4 1 C3.75 2.875 3.75 2.875 3 5 C0.9375 6.25 0.9375 6.25 -1 7 C-0.67 4.69 -0.34 2.38 0 0 Z " fill="#F5F7F7" transform="translate(142,97)"/>
<path d="M0 0 C-0.33 0.99 -0.66 1.98 -1 3 C-2.84765625 3.73046875 -2.84765625 3.73046875 -5.0625 4.1875 C-5.79597656 4.34605469 -6.52945313 4.50460938 -7.28515625 4.66796875 C-8.13400391 4.83232422 -8.13400391 4.83232422 -9 5 C-6.45523312 2.20075644 -3.92372883 0 0 0 Z " fill="#F0F7F7" transform="translate(86,213)"/>
<path d="M0 0 C0 0.66 0 1.32 0 2 C-0.99 2 -1.98 2 -3 2 C-3.33 2.99 -3.66 3.98 -4 5 C-5.65 5.33 -7.3 5.66 -9 6 C-3.15384615 0 -3.15384615 0 0 0 Z " fill="#E4ECE9" transform="translate(874,172)"/>
<path d="M0 0 C2 3 2 3 2 7 C1.34 7 0.68 7 0 7 C-2 4 -2 4 -2 1 C-1.34 0.67 -0.68 0.34 0 0 Z " fill="#F1F7F7" transform="translate(873,91)"/>
<path d="M0 0 C0 3 0 3 -2 6 C-2.99 6 -3.98 6 -5 6 C-5 5.01 -5 4.02 -5 3 C-2.5 1.3125 -2.5 1.3125 0 0 Z " fill="#EDF6F3" transform="translate(176,260)"/>
<path d="M0 0 C2 2 2 2 2.125 5.125 C2.08375 6.07375 2.0425 7.0225 2 8 C1.34 7.67 0.68 7.34 0 7 C0 6.34 0 5.68 0 5 C-0.66 5 -1.32 5 -2 5 C-1.125 1.125 -1.125 1.125 0 0 Z " fill="#EDF5F0" transform="translate(377,240)"/>
<path d="M0 0 C0.99 0 1.98 0 3 0 C2.67 2.31 2.34 4.62 2 7 C0 5 0 5 -0.125 2.375 C-0.08375 1.59125 -0.0425 0.8075 0 0 Z " fill="#FEFCFD" transform="translate(1062,239)"/>
<path d="M0 0 C0.33 0 0.66 0 1 0 C1.22036864 3.85645121 0.60355101 6.49223216 -1 10 C-2.1875 8.375 -2.1875 8.375 -3 6 C-1.625 2.75 -1.625 2.75 0 0 Z " fill="#F2F8F6" transform="translate(480,182)"/>
<path d="M0 0 C0.33 0 0.66 0 1 0 C1 1.65 1 3.3 1 5 C-0.98 5.99 -0.98 5.99 -3 7 C-2.67 5.35 -2.34 3.7 -2 2 C-1.34 2 -0.68 2 0 2 C0 1.34 0 0.68 0 0 Z " fill="#EFF3F3" transform="translate(105,150)"/>
<path d="M0 0 C0.99 0.33 1.98 0.66 3 1 C2.67 1.99 2.34 2.98 2 4 C0.02 4.33 -1.96 4.66 -4 5 C-2.68 3.35 -1.36 1.7 0 0 Z " fill="#F4F8F6" transform="translate(1179,127)"/>
<path d="M0 0 C0.66 0 1.32 0 2 0 C2.33 2.64 2.66 5.28 3 8 C2.01 7.67 1.02 7.34 0 7 C0 4.69 0 2.38 0 0 Z " fill="#EFF6F4" transform="translate(927,126)"/>
<path d="" fill="#FFFFFF" transform="translate(0,0)"/>
</svg>
