<?xml version="1.0" encoding="UTF-8"?>
<svg version="1.1" xmlns="http://www.w3.org/2000/svg" width="289" height="289">
<path d="M0 0 C15.84 0 31.68 0 48 0 C48 3.96 48 7.92 48 12 C55.92 12 63.84 12 72 12 C72 15.96 72 19.92 72 24 C75.96 24 79.92 24 84 24 C84 31.92 84 39.84 84 48 C91.92 48 99.84 48 108 48 C108 51.96 108 55.92 108 60 C111.96 60 115.92 60 120 60 C120 75.84 120 91.68 120 108 C124.29 108 128.58 108 133 108 C133 111.96 133 115.92 133 120 C136.63 120 140.26 120 144 120 C144 123.96 144 127.92 144 132 C140.04 132 136.08 132 132 132 C132 135.96 132 139.92 132 144 C128.04 144 124.08 144 120 144 C120 147.96 120 151.92 120 156 C112.08 156 104.16 156 96 156 C96 167.88 96 179.76 96 192 C92.04 192 88.08 192 84 192 C84 199.92 84 207.84 84 216 C87.96 216 91.92 216 96 216 C96 223.92 96 231.84 96 240 C80.16 240 64.32 240 48 240 C48 236.37 48 232.74 48 229 C44.37 229 40.74 229 37 229 C37 232.63 37 236.26 37 240 C16.87 240 -3.26 240 -24 240 C-24 232.08 -24 224.16 -24 216 C-20.04 216 -16.08 216 -12 216 C-12 208.08 -12 200.16 -12 192 C-19.92 192 -27.84 192 -36 192 C-36 180.12 -36 168.24 -36 156 C-32.04 156 -28.08 156 -24 156 C-24 152.04 -24 148.08 -24 144 C-27.96 144 -31.92 144 -36 144 C-36 140.04 -36 136.08 -36 132 C-39.96 132 -43.92 132 -48 132 C-48 128.04 -48 124.08 -48 120 C-51.96 120 -55.92 120 -60 120 C-60 104.16 -60 88.32 -60 72 C-56.04 72 -52.08 72 -48 72 C-48 68.37 -48 64.74 -48 61 C-50.6915625 61.0309375 -50.6915625 61.0309375 -53.4375 61.0625 C-55.29166122 61.0838122 -57.14712498 61.07226502 -59 61 C-60 60 -60 60 -60.09765625 57.27734375 C-60.06510417 54.18489583 -60.03255208 51.09244792 -60 48 C-56.04 48 -52.08 48 -48 48 C-48 44.04 -48 40.08 -48 36 C-40.08 36 -32.16 36 -24 36 C-24 32.04 -24 28.08 -24 24 C-20.04 24 -16.08 24 -12 24 C-12 20.04 -12 16.08 -12 12 C-8.04 12 -4.08 12 0 12 C0 8.04 0 4.08 0 0 Z M109 109 C109 112.63 109 116.26 109 120 C112.63 120 116.26 120 120 120 C120 116.37 120 112.74 120 109 C116.37 109 112.74 109 109 109 Z " fill="#FDFE06" transform="translate(108,24)"/>
<path d="M0 0 C15.84 0 31.68 0 48 0 C48 3.96 48 7.92 48 12 C55.92 12 63.84 12 72 12 C72 15.96 72 19.92 72 24 C75.96 24 79.92 24 84 24 C84 31.92 84 39.84 84 48 C91.92 48 99.84 48 108 48 C108 67.8 108 87.6 108 108 C92.16 108 76.32 108 60 108 C60 111.96 60 115.92 60 120 C40.2 120 20.4 120 0 120 C0 123.96 0 127.92 0 132 C-7.92 132 -15.84 132 -24 132 C-24 128.04 -24 124.08 -24 120 C-27.96 120 -31.92 120 -36 120 C-36 116.04 -36 112.08 -36 108 C-39.96 108 -43.92 108 -48 108 C-48 92.49 -48 76.98 -48 61 C-51.63 61 -55.26 61 -59 61 C-60 60 -60 60 -60.09765625 57.27734375 C-60.06510417 54.18489583 -60.03255208 51.09244792 -60 48 C-56.04 48 -52.08 48 -48 48 C-48 44.04 -48 40.08 -48 36 C-40.08 36 -32.16 36 -24 36 C-24 32.04 -24 28.08 -24 24 C-20.04 24 -16.08 24 -12 24 C-12 20.04 -12 16.08 -12 12 C-8.04 12 -4.08 12 0 12 C0 8.04 0 4.08 0 0 Z " fill="#FDFE04" transform="translate(108,24)"/>
<path d="M0 0 C3.96 0 7.92 0 12 0 C12 15.84 12 31.68 12 48 C16.29 48 20.58 48 25 48 C25 51.96 25 55.92 25 60 C28.63 60 32.26 60 36 60 C36 63.96 36 67.92 36 72 C32.04 72 28.08 72 24 72 C24 75.96 24 79.92 24 84 C20.04 84 16.08 84 12 84 C12 80.04 12 76.08 12 72 C0.12 72 -11.76 72 -24 72 C-24 68.04 -24 64.08 -24 60 C-27.96 60 -31.92 60 -36 60 C-36 63.96 -36 67.92 -36 72 C-47.88 72 -59.76 72 -72 72 C-72 75.96 -72 79.92 -72 84 C-83.88 84 -95.76 84 -108 84 C-108 87.96 -108 91.92 -108 96 C-115.92 96 -123.84 96 -132 96 C-132 92.04 -132 88.08 -132 84 C-135.96 84 -139.92 84 -144 84 C-144 80.04 -144 76.08 -144 72 C-147.96 72 -151.92 72 -156 72 C-156 68.04 -156 64.08 -156 60 C-159.96 60 -163.92 60 -168 60 C-168 44.16 -168 28.32 -168 12 C-164.04 12 -160.08 12 -156 12 C-156 23.88 -156 35.76 -156 48 C-152.04 48 -148.08 48 -144 48 C-144 51.96 -144 55.92 -144 60 C-140.04 60 -136.08 60 -132 60 C-132 63.96 -132 67.92 -132 72 C-124.08 72 -116.16 72 -108 72 C-108 68.04 -108 64.08 -108 60 C-88.2 60 -68.4 60 -48 60 C-48 56.04 -48 52.08 -48 48 C-32.16 48 -16.32 48 0 48 C0 32.16 0 16.32 0 0 Z M1 49 C1 52.63 1 56.26 1 60 C4.63 60 8.26 60 12 60 C12 56.37 12 52.74 12 49 C8.37 49 4.74 49 1 49 Z " fill="#05AD4A" transform="translate(216,84)"/>
<path d="M0 0 C3.96 0 7.92 0 12 0 C12 15.84 12 31.68 12 48 C16.29 48 20.58 48 25 48 C25 51.96 25 55.92 25 60 C28.63 60 32.26 60 36 60 C36 63.96 36 67.92 36 72 C32.04 72 28.08 72 24 72 C24 75.96 24 79.92 24 84 C20.04 84 16.08 84 12 84 C12 80.04 12 76.08 12 72 C0.12 72 -11.76 72 -24 72 C-24 68.04 -24 64.08 -24 60 C-27.96 60 -31.92 60 -36 60 C-36 63.96 -36 67.92 -36 72 C-39.96 72 -43.92 72 -48 72 C-48 64.08 -48 56.16 -48 48 C-32.16 48 -16.32 48 0 48 C0 32.16 0 16.32 0 0 Z M1 49 C1 52.63 1 56.26 1 60 C4.63 60 8.26 60 12 60 C12 56.37 12 52.74 12 49 C8.37 49 4.74 49 1 49 Z " fill="#808073" transform="translate(216,84)"/>
<path d="M0 0 C3.96 0 7.92 0 12 0 C12 7.92 12 15.84 12 24 C23.88 24 35.76 24 48 24 C48 20.04 48 16.08 48 12 C51.96 12 55.92 12 60 12 C60 19.92 60 27.84 60 36 C44.16 36 28.32 36 12 36 C12 32.37 12 28.74 12 25 C8.37 25 4.74 25 1 25 C1 28.63 1 32.26 1 36 C-19.13 36 -39.26 36 -60 36 C-60 28.08 -60 20.16 -60 12 C-56.04 12 -52.08 12 -48 12 C-48 15.96 -48 19.92 -48 24 C-32.16 24 -16.32 24 0 24 C0 16.08 0 8.16 0 0 Z " fill="#7E7E78" transform="translate(144,228)"/>
<path d="M0 0 C3.96 0 7.92 0 12 0 C12 11.88 12 23.76 12 36 C8.04 36 4.08 36 0 36 C0 39.96 0 43.92 0 48 C-7.92 48 -15.84 48 -24 48 C-24 44.37 -24 40.74 -24 37 C-26.6915625 37.0309375 -26.6915625 37.0309375 -29.4375 37.0625 C-31.29166122 37.0838122 -33.14712498 37.07226502 -35 37 C-36 36 -36 36 -36.09765625 33.27734375 C-36.06510417 30.18489583 -36.03255208 27.09244792 -36 24 C-32.04 24 -28.08 24 -24 24 C-24 20.04 -24 16.08 -24 12 C-16.08 12 -8.16 12 0 12 C0 8.04 0 4.08 0 0 Z " fill="#02205A" transform="translate(84,48)"/>
<path d="M0 0 C3.96 0 7.92 0 12 0 C12 7.92 12 15.84 12 24 C23.88 24 35.76 24 48 24 C48 27.96 48 31.92 48 36 C44.04 36 40.08 36 36 36 C36 43.92 36 51.84 36 60 C32.04 60 28.08 60 24 60 C24 52.08 24 44.16 24 36 C16.08 36 8.16 36 0 36 C0 24.12 0 12.24 0 0 Z " fill="#7F7F79" transform="translate(72,180)"/>
<path d="M0 0 C15.84 0 31.68 0 48 0 C48 3.96 48 7.92 48 12 C40.08 12 32.16 12 24 12 C24 23.88 24 35.76 24 48 C20.04 48 16.08 48 12 48 C12 36.12 12 24.24 12 12 C8.04 12 4.08 12 0 12 C0 8.04 0 4.08 0 0 Z " fill="#7F7F78" transform="translate(180,168)"/>
<path d="M0 0 C3.96 0 7.92 0 12 0 C12 11.88 12 23.76 12 36 C15.96 36 19.92 36 24 36 C24 39.96 24 43.92 24 48 C27.96 48 31.92 48 36 48 C36 51.96 36 55.92 36 60 C28.08 60 20.16 60 12 60 C12 56.04 12 52.08 12 48 C8.04 48 4.08 48 0 48 C0 32.16 0 16.32 0 0 Z " fill="#7F7F79" transform="translate(48,96)"/>
<path d="M0 0 C3.63 0 7.26 0 11 0 C11 15.84 11 31.68 11 48 C15.29 48 19.58 48 24 48 C24 51.96 24 55.92 24 60 C27.63 60 31.26 60 35 60 C35 63.96 35 67.92 35 72 C31.04 72 27.08 72 23 72 C23 68.04 23 64.08 23 60 C19.04 60 15.08 60 11 60 C11 56.37 11 52.74 11 49 C7.37 49 3.74 49 0 49 C0 32.83 0 16.66 0 0 Z " fill="#807F7F" transform="translate(217,84)"/>
<path d="M0 0 C7.92 0 15.84 0 24 0 C24 3.96 24 7.92 24 12 C27.96 12 31.92 12 36 12 C36 19.92 36 27.84 36 36 C32.04 36 28.08 36 24 36 C24 32.04 24 28.08 24 24 C20.04 24 16.08 24 12 24 C12 20.04 12 16.08 12 12 C8.04 12 4.08 12 0 12 C0 8.04 0 4.08 0 0 Z " fill="#7F7F78" transform="translate(156,36)"/>
<path d="M0 0 C11.88 0 23.76 0 36 0 C36 3.96 36 7.92 36 12 C28.08 12 20.16 12 12 12 C12 15.96 12 19.92 12 24 C8.04 24 4.08 24 0 24 C0 16.08 0 8.16 0 0 Z " fill="#92D04C" transform="translate(168,132)"/>
<path d="M0 0 C15.84 0 31.68 0 48 0 C48 3.96 48 7.92 48 12 C32.16 12 16.32 12 0 12 C0 8.04 0 4.08 0 0 Z " fill="#7E7E79" transform="translate(108,24)"/>
<path d="M0 0 C3.96 0 7.92 0 12 0 C12 3.96 12 7.92 12 12 C19.92 12 27.84 12 36 12 C36 15.96 36 19.92 36 24 C28.08 24 20.16 24 12 24 C12 20.37 12 16.74 12 13 C9.3084375 13.0309375 9.3084375 13.0309375 6.5625 13.0625 C4.70833878 13.0838122 2.85287502 13.07226502 1 13 C0 12 0 12 -0.09765625 9.27734375 C-0.06510417 6.18489583 -0.03255208 3.09244792 0 0 Z " fill="#7F807B" transform="translate(48,72)"/>
<path d="M0 0 C7.92 0 15.84 0 24 0 C24 3.96 24 7.92 24 12 C20.04 12 16.08 12 12 12 C12 15.96 12 19.92 12 24 C8.04 24 4.08 24 0 24 C0 16.08 0 8.16 0 0 Z " fill="#828173" transform="translate(120,180)"/>
<path d="M0 0 C3.63 0 7.26 0 11 0 C11 15.84 11 31.68 11 48 C15.29 48 19.58 48 24 48 C24 51.96 24 55.92 24 60 C27.63 60 31.26 60 35 60 C35 63.96 35 67.92 35 72 C31.04 72 27.08 72 23 72 C23 68.04 23 64.08 23 60 C19.04 60 15.08 60 11 60 C11 56.37 11 52.74 11 49 C7.37 49 3.74 49 0 49 C0 48.67 0 48.34 0 48 C3.3 48 6.6 48 10 48 C10 32.49 10 16.98 10 1 C6.7 1 3.4 1 0 1 C0 0.67 0 0.34 0 0 Z " fill="#757572" transform="translate(217,84)"/>
<path d="M0 0 C3.96 0 7.92 0 12 0 C12 7.92 12 15.84 12 24 C8.04 24 4.08 24 0 24 C0 16.08 0 8.16 0 0 Z " fill="#7F7F75" transform="translate(180,216)"/>
<path d="M0 0 C7.92 0 15.84 0 24 0 C24 3.96 24 7.92 24 12 C16.08 12 8.16 12 0 12 C0 8.04 0 4.08 0 0 Z " fill="#7E8177" transform="translate(84,168)"/>
<path d="M0 0 C7.92 0 15.84 0 24 0 C24 3.96 24 7.92 24 12 C16.08 12 8.16 12 0 12 C0 8.04 0 4.08 0 0 Z " fill="#92CF4F" transform="translate(60,144)"/>
<path d="M0 0 C3.96 0 7.92 0 12 0 C12 7.92 12 15.84 12 24 C8.04 24 4.08 24 0 24 C0 16.08 0 8.16 0 0 Z " fill="#04214E" transform="translate(168,96)"/>
<path d="M0 0 C3.96 0 7.92 0 12 0 C12 7.92 12 15.84 12 24 C8.04 24 4.08 24 0 24 C0 16.08 0 8.16 0 0 Z " fill="#04214E" transform="translate(120,96)"/>
<path d="M0 0 C7.92 0 15.84 0 24 0 C24 3.96 24 7.92 24 12 C16.08 12 8.16 12 0 12 C0 8.04 0 4.08 0 0 Z " fill="#7E7E76" transform="translate(192,72)"/>
<path d="M0 0 C3.96 0 7.92 0 12 0 C12 7.92 12 15.84 12 24 C8.04 24 4.08 24 0 24 C0 16.08 0 8.16 0 0 Z " fill="#7E7F7B" transform="translate(84,48)"/>
<path d="M0 0 C3.96 0 7.92 0 12 0 C12 3.63 12 7.26 12 11 C7.77484052 13.11257974 5.61982692 13.26149964 1 13 C0 12 0 12 -0.09765625 9.27734375 C-0.06510417 6.18489583 -0.03255208 3.09244792 0 0 Z " fill="#8AA6D6" transform="translate(48,72)"/>
<path d="M0 0 C3.96 0 7.92 0 12 0 C12 3.96 12 7.92 12 12 C8.04 12 4.08 12 0 12 C0 8.04 0 4.08 0 0 Z " fill="#83816D" transform="translate(156,216)"/>
<path d="M0 0 C3.96 0 7.92 0 12 0 C12 3.96 12 7.92 12 12 C8.04 12 4.08 12 0 12 C0 8.04 0 4.08 0 0 Z " fill="#8BD254" transform="translate(132,156)"/>
<path d="M0 0 C3.96 0 7.92 0 12 0 C12 3.96 12 7.92 12 12 C8.04 12 4.08 12 0 12 C0 8.04 0 4.08 0 0 Z " fill="#7F7E74" transform="translate(228,156)"/>
<path d="M0 0 C3.96 0 7.92 0 12 0 C12 3.96 12 7.92 12 12 C8.04 12 4.08 12 0 12 C0 8.04 0 4.08 0 0 Z " fill="#FBFB15" transform="translate(228,144)"/>
<path d="M0 0 C3.96 0 7.92 0 12 0 C12 3.96 12 7.92 12 12 C8.04 12 4.08 12 0 12 C0 8.04 0 4.08 0 0 Z " fill="#92CF52" transform="translate(192,132)"/>
<path d="M0 0 C3.96 0 7.92 0 12 0 C12 3.96 12 7.92 12 12 C8.04 12 4.08 12 0 12 C0 8.04 0 4.08 0 0 Z " fill="#0AAC45" transform="translate(180,132)"/>
<path d="M0 0 C3.96 0 7.92 0 12 0 C12 3.96 12 7.92 12 12 C8.04 12 4.08 12 0 12 C0 8.04 0 4.08 0 0 Z " fill="#062247" transform="translate(96,84)"/>
<path d="M0 0 C3.96 0 7.92 0 12 0 C12 3.96 12 7.92 12 12 C8.04 12 4.08 12 0 12 C0 8.04 0 4.08 0 0 Z " fill="#062248" transform="translate(108,72)"/>
<path d="M0 0 C3.96 0 7.92 0 12 0 C12 3.96 12 7.92 12 12 C8.04 12 4.08 12 0 12 C0 8.04 0 4.08 0 0 Z " fill="#8CA7D8" transform="translate(60,60)"/>
<path d="M0 0 C3.96 0 7.92 0 12 0 C12 3.96 12 7.92 12 12 C8.04 12 4.08 12 0 12 C0 8.04 0 4.08 0 0 Z " fill="#7E7E70" transform="translate(96,36)"/>
<path d="M0 0 C3.63 0 7.26 0 11 0 C11 3.63 11 7.26 11 11 C7.04 11 3.08 11 -1 11 C-0.67 7.37 -0.34 3.74 0 0 Z " fill="#80807A" transform="translate(229,133)"/>
<path d="M0 0 C0.33 0 0.66 0 1 0 C1 3.63 1 7.26 1 11 C-2.96 11 -6.92 11 -11 11 C-10.67 8.03 -10.34 5.06 -10 2 C-9.01 1.67 -8.02 1.34 -7 1 C-7 1.66 -7 2.32 -7 3 C-6.34 3 -5.68 3 -5 3 C-5 5.31 -5 7.62 -5 10 C-3.35 10 -1.7 10 0 10 C0 6.7 0 3.4 0 0 Z " fill="#97CF44" transform="translate(143,157)"/>
<path d="M0 0 C1.98 0 3.96 0 6 0 C5.67 0.66 5.34 1.32 5 2 C4.34 2 3.68 2 3 2 C3 3.65 3 5.3 3 7 C2.01 7 1.02 7 0 7 C0 4.69 0 2.38 0 0 Z " fill="#807E81" transform="translate(97,37)"/>
<path d="M0 0 C1.32 0 2.64 0 4 0 C4 0.66 4 1.32 4 2 C5.98 2 7.96 2 10 2 C10 2.33 10 2.66 10 3 C6.37 3 2.74 3 -1 3 C-0.67 2.01 -0.34 1.02 0 0 Z " fill="#6F6F6E" transform="translate(242,153)"/>
</svg>
